<svg xmlns="http://www.w3.org/2000/svg" xmlns:xlink="http://www.w3.org/1999/xlink" width="400" height="275" viewBox="0 0 400 275">
  <defs>
    <clipPath id="clip-path">
      <rect id="spacer" width="400" height="275" transform="translate(580 697)" fill="#fff"/>
    </clipPath>
    <clipPath id="clip-icon-education--year">
      <rect width="400" height="275"/>
    </clipPath>
  </defs>
  <g id="icon-education--year" clip-path="url(#clip-icon-education--year)">
    <g id="Mask_Group_783" data-name="Mask Group 783" transform="translate(-580 -697)" clip-path="url(#clip-path)">
      <text id="粘得紀念教育基金會成立" transform="translate(780 884)" fill="#333" font-size="32" font-family="NotoSerifTC-Bold, Noto Serif TC" font-weight="700"><tspan x="-176" y="0">粘得紀念教育基金會成立</tspan></text>
      <text id="De_Nien_Education_Foundation" data-name="De Nien Education Foundation" transform="translate(633 894)" fill="#333" font-size="14.5" font-family="NotoSerifTC-Bold, Noto Serif TC" font-weight="700"><tspan x="34.683" y="17">De Nien Education Foundation</tspan></text>
      <g id="Group_17765" data-name="Group 17765" transform="translate(-301 -499)">
        <path id="Path_30285" data-name="Path 30285" d="M-1455.93,3349.526c1.819-4.093,8.936-9.842,16.929-9.984s17.028.776,20.861,2.854,10.276,5.968,10.705,17.559c.141,3.807.1,14.483,0,20.693a21.043,21.043,0,0,1-3.426,12c.342,2.949,2,1.57,2,1.57l4.71-8.422v-31.119l-3.283-9.992-10.705-8.136-11.847-1.428h-12.132l-8.136,5-4.181,3.436S-1457.749,3353.619-1455.93,3349.526Z" transform="translate(2595.085 -2120.375)" fill="#ffe4a4"/>
        <path id="Path_30286" data-name="Path 30286" d="M-1439.468,3391.782v-40.528l4.515-.965,3.618-4.342,5.066,4.342,4.824,2.413,3.135,4.825-1.206,12.3-4.342,15.2-11.1,6.755Z" transform="translate(2603.416 -2115.069)" fill="#ffe4a4"/>
        <g id="Group_17763" data-name="Group 17763" transform="translate(1108.776 1213.823)">
          <rect id="Rectangle_5710" data-name="Rectangle 5710" width="2.082" height="14.575" transform="translate(20.819 116.601)" fill="#404d61" stroke="#404d61" stroke-width="0.5"/>
          <rect id="Rectangle_5711" data-name="Rectangle 5711" width="2.082" height="14.575" transform="translate(87.442 116.601)" fill="#404d61" stroke="#404d61" stroke-width="0.5"/>
          <path id="Path_30287" data-name="Path 30287" d="M-1413.179,3396.14c1.8-1.582,5.892-6.142,5.892-14.792v-24.986a21.885,21.885,0,0,0-21.861-21.862h-12.492a21.885,21.885,0,0,0-21.86,21.862v24.986c0,8.649,4.1,13.209,5.892,14.792l1.166-1.749c-1.594-1.48-4.976-5.507-4.976-13.042v-24.986a19.8,19.8,0,0,1,19.779-19.781h12.492a19.8,19.8,0,0,1,19.778,19.781v24.986c0,7.5-3.383,11.547-4.978,13.039l.639.959Z" transform="translate(1490.565 -3334.5)" fill="#404d61" stroke="#404d61" stroke-width="0.5"/>
          <path id="Path_30288" data-name="Path 30288" d="M-1416.78,3356.034a9.427,9.427,0,0,0-8.557-9.334l-.379-.033-3.86-3.862a1.045,1.045,0,0,0-1.474,0l-3.858,3.86h-16.224a9.38,9.38,0,0,0-9.369,9.37v4.165c0,11.9,2.689,20.419,7.993,25.306l.335.31v7.342l2.078.518c0-.054,0-.108,0-.163v-6.055l1.512.762a21.849,21.849,0,0,0,9.939,2.17,21.849,21.849,0,0,0,9.939-2.17l1.511-.762v6.055c0,.054,0,.108,0,.163l2.078-.518v-7.342l.335-.31c5.3-4.887,7.992-13.4,7.992-25.306Zm-2.082,4.165c0,18.914-6.469,28.108-19.778,28.108s-19.779-9.195-19.779-28.108v-4.165a7.3,7.3,0,0,1,7.287-7.288h16.656a1.042,1.042,0,0,0,.737-.3l3.427-3.429,3.427,3.429a1.043,1.043,0,0,0,.737.3,7.3,7.3,0,0,1,7.287,7.288Z" transform="translate(1493.811 -3325.843)" fill="#404d61" stroke="#404d61" stroke-width="0.5"/>
          <path id="Path_30289" data-name="Path 30289" d="M-1421.329,3380.425l7.591,7.593a1.06,1.06,0,0,0,1.241.175l18.259-10.148,3.673,1.839c8.424,2.819,22.327,9.607,22.327,24.055v26.027h2.082v-26.027c0-11.464-8.557-20.915-23.474-25.927l-.135-.056-3.829-1.914-.069-.025-10.36-8.289a1.031,1.031,0,0,0-.9-.2l-16.406,4.1-16.4-4.1a1.07,1.07,0,0,0-.906.2l-10.422,8.311-3.831,1.914c-15.053,5.068-23.609,14.519-23.609,25.983v26.027h2.082v-26.027c0-14.448,13.9-21.236,22.189-24l3.81-1.9,18.257,10.147a1.038,1.038,0,0,0,1.241-.173Zm-8.509,5.565-16.693-9.276,8.794-7.038,16.156,4.04a1.013,1.013,0,0,0,.508,0l16.152-4.04,8.794,7.038-16.693,9.276-7.772-7.774a1.068,1.068,0,0,0-1.474,0Z" transform="translate(1476.5 -3298.79)" fill="#404d61" stroke="#404d61" stroke-width="0.5"/>
        </g>
        <path id="Path_30290" data-name="Path 30290" d="M-3953.178-3126.214v40.64l12.871-3.526,6.123-9.279,5.2-16.144,1.3-2.969v-16.145l-4.453,3.526-12.989,3.9Z" transform="translate(4981.146 4361.468)" fill="#ffe4a4"/>
        <g id="Group_17764" data-name="Group 17764" transform="translate(965.301 1196)">
          <rect id="Rectangle_5712" data-name="Rectangle 5712" width="2.365" height="16.555" transform="translate(23.648 132.445)" fill="#404d61" stroke="#404d61" stroke-width="0.5"/>
          <rect id="Rectangle_5713" data-name="Rectangle 5713" width="2.365" height="16.555" transform="translate(99.321 132.445)" fill="#404d61" stroke="#404d61" stroke-width="0.5"/>
          <rect id="Rectangle_5714" data-name="Rectangle 5714" width="2.365" height="30.745" transform="translate(61.484 118.254)" fill="#404d61" stroke="#404d61" stroke-width="0.5"/>
          <path id="Path_30291" data-name="Path 30291" d="M-1347.834,3416.575l8.622,8.626a1.21,1.21,0,0,0,1.409.2l18.5-10.281,6.413,3.207c14.915,4.983,25.36,9.477,25.36,22.593v24.833h2.365v-24.833c0-15.827-14.165-20.55-26.661-24.716l-.156-.066-4.377-2.19.371-1a1.153,1.153,0,0,0,.076-.312,1.2,1.2,0,0,0-.44-1.026l-11.824-9.458a1.172,1.172,0,0,0-1.022-.225l-3.263.816v-11.513l.353-.345c6.377-6.263,8.877-15.641,9.093-22.326l.014-.468,2.365-2.365V3347.5h-2.644c-1.837,3.9-12.521,7.095-24.551,7.095s-22.713-3.2-24.551-7.095h-2.644v18.228l2.365,2.365.014.468c.215,6.686,2.715,16.063,9.093,22.326l.352.345v11.513l-3.261-.814a1.219,1.219,0,0,0-1.029.226l-11.821,9.457a1.194,1.194,0,0,0-.438,1.021,1.165,1.165,0,0,0,.076.315l.371,1-4.377,2.19c-12.652,4.233-26.816,8.956-26.816,24.783v24.833h2.365v-24.833c0-13.116,10.445-17.61,25.2-22.526l6.57-3.273,18.495,10.278a1.175,1.175,0,0,0,1.41-.2ZM-1370.3,3367.6v-.49l-2.365-2.364v-13.7l1.8,1.106c10.33,6.34,35.727,6.34,46.057,0l1.8-1.106v13.7l-2.365,2.364v.49c0,10.515-6.1,27.2-22.466,27.2S-1370.3,3378.118-1370.3,3367.6Zm35.471,25.71v10.022l-13.006,3.252-13.006-3.252v-10.022l1.769,1.01a22.359,22.359,0,0,0,11.237,2.843,22.362,22.362,0,0,0,11.238-2.843ZM-1357.5,3422.9l-17.3-9.612-.806-1.613,9.13-7.305,18.351,4.588a1.2,1.2,0,0,0,.577,0l18.346-4.588,9.128,7.3-.8,1.613-17.3,9.614-8.828-8.831a1.213,1.213,0,0,0-1.674,0Z" transform="translate(1410.5 -3316.752)" fill="#404d61" stroke="#404d61" stroke-width="0.5"/>
          <path id="Path_30292" data-name="Path 30292" d="M-1315,3374.707v-24.833a1.182,1.182,0,0,0-.809-1.123l-42.566-14.19a1.152,1.152,0,0,0-.747,0l-42.566,14.19a1.185,1.185,0,0,0-.809,1.123,1.191,1.191,0,0,0,.809,1.126l42.566,14.188a1.229,1.229,0,0,0,.759,0l41-13.67v23.191Zm-43.748-11.889-38.827-12.944,38.827-12.943,38.827,12.943Z" transform="translate(1421.419 -3334.499)" fill="#404d61" stroke="#404d61" stroke-width="0.5"/>
          <rect id="Rectangle_5715" data-name="Rectangle 5715" width="2.365" height="2.365" transform="translate(104.05 47.303)" fill="#404d61" stroke="#404d61" stroke-width="0.5"/>
          <rect id="Rectangle_5716" data-name="Rectangle 5716" width="2.365" height="2.365" transform="translate(61.484 108.794)" fill="#404d61" stroke="#404d61" stroke-width="0.5"/>
        </g>
        <path id="Path_30293" data-name="Path 30293" d="M-1979.324,3339.2a3.006,3.006,0,0,0,3-3,3.006,3.006,0,0,0-3-3,3.006,3.006,0,0,0-3,3A3.006,3.006,0,0,0-1979.324,3339.2Z" transform="translate(2900.356 -2105.099)" fill="#1e86d5" fill-rule="evenodd"/>
        <path id="Path_30294" data-name="Path 30294" d="M-1981.124,3335.6a1.2,1.2,0,0,0,1.2-1.2,1.2,1.2,0,0,0-1.2-1.2,1.2,1.2,0,0,0-1.2,1.2A1.2,1.2,0,0,0-1981.124,3335.6Z" transform="translate(3106.574 -2119.379)" fill="#1e86d5" fill-rule="evenodd"/>
        <path id="Path_30295" data-name="Path 30295" d="M-1874.235,3331.341a10.377,10.377,0,0,1,7.365-7.366,10.38,10.38,0,0,1-7.365-7.366,10.381,10.381,0,0,1-7.365,7.366A10.378,10.378,0,0,1-1874.235,3331.341Z" transform="translate(3111.661 -2084.844)" fill="#1e86d5" fill-rule="evenodd"/>
        <path id="Path_30296" data-name="Path 30296" d="M-1816.56,3339.478a7.331,7.331,0,0,1,5.2-5.2,7.331,7.331,0,0,1-5.2-5.2,7.327,7.327,0,0,1-5.2,5.2A7.328,7.328,0,0,1-1816.56,3339.478Z" transform="translate(2781.19 -2049.635)" fill="#1e86d5" fill-rule="evenodd"/>
      </g>
      <path id="Path_30297" data-name="Path 30297" d="M-49.544-4.664c2.2-2.068,4.312-4.048,5.632-5.236,7.744-6.82,11.176-10.164,11.176-14.608,0-5.148-3.036-8.8-9.68-8.8-5.412,0-10.032,2.64-10.56,7.568a2.811,2.811,0,0,0,2.6,1.672c1.276,0,2.464-.748,2.948-3.344l1.056-4.048a11.406,11.406,0,0,1,2.068-.22c3.564,0,5.676,2.728,5.676,6.952,0,4.4-2.112,7.524-6.908,12.98-2.156,2.464-4.708,5.368-7.3,8.316V0h21.12V-4.664ZM-19.4-16.412c0-12.056,2.464-15.224,5.28-15.224,2.728,0,5.236,3.212,5.236,15.224C-8.888-4.224-11.4-.924-14.124-.924-16.94-.924-19.4-4.18-19.4-16.412Zm5.28-16.852c-5.72,0-10.912,4.884-10.912,16.852C-25.036-4.268-19.844.7-14.124.7-8.492.7-3.256-4.268-3.256-16.412-3.256-28.38-8.492-33.264-14.124-33.264ZM8.932-16.412c0-12.056,2.464-15.224,5.28-15.224,2.728,0,5.236,3.212,5.236,15.224,0,12.188-2.508,15.488-5.236,15.488C11.4-.924,8.932-4.18,8.932-16.412Zm5.28-16.852C8.492-33.264,3.3-28.38,3.3-16.412,3.3-4.268,8.492.7,14.212.7,19.844.7,25.08-4.268,25.08-16.412,25.08-28.38,19.844-33.264,14.212-33.264ZM42.944-.924c-3.476,0-5.632-4.136-5.632-13.024,0-.528,0-1.012.044-1.54a7.487,7.487,0,0,1,5.28-2.024c3.3,0,5.148,2.728,5.148,8.1C47.784-3.476,45.716-.924,42.944-.924Zm8.712-32.384c-12.32,1.276-20.24,9.856-20.24,20.2C31.416-4.488,35.86.7,42.856.7c6.556,0,10.736-4.356,10.736-10.868,0-5.852-3.344-9.812-8.888-9.812a10.034,10.034,0,0,0-7.216,2.9C38.5-24.816,43.3-30.184,51.92-32.208Z" transform="translate(779.976 970.563)" fill="#404d61"/>
    </g>
  </g>
</svg>
