<svg xmlns="http://www.w3.org/2000/svg" xmlns:xlink="http://www.w3.org/1999/xlink" width="280" height="180" viewBox="0 0 280 180">
  <defs>
    <clipPath id="clip-path">
      <rect id="Rectangle_5717" data-name="Rectangle 5717" width="280" height="180" transform="translate(330 1074)" fill="none" stroke="#707070" stroke-width="1"/>
    </clipPath>
    <clipPath id="clip-icon-proof-1">
      <rect width="280" height="180"/>
    </clipPath>
  </defs>
  <g id="icon-proof-1" clip-path="url(#clip-icon-proof-1)">
    <g id="Mask_Group_820" data-name="Mask Group 820" transform="translate(-330 -1074)" clip-path="url(#clip-path)">
      <g id="Group_17786" data-name="Group 17786" transform="translate(738.326 -2735.207)">
        <path id="Path_30301" data-name="Path 30301" d="M-247.272,3842.973l21.06-25.354-15.086-5.834-10.057,3.018-2.414,10.459Z" transform="translate(21.305 1.837)" fill="#fff1d1"/>
        <path id="Path_30302" data-name="Path 30302" d="M-293.436,3877.143l16.247-15.627,13.152,18.567,20.115,16.246,10.057-8.665,35.743,1.083-10.676,11.14,12.688,13.152h-44.871l15.937,29.4-14.39-2.012-4.487,15.164-21.662-37.754,3.713-4.8-20.424-15.628-13.771-18.568Z" transform="translate(11.052 13.892)" fill="#fff1d1"/>
        <ellipse id="Ellipse_210" data-name="Ellipse 210" cx="18.583" cy="38.839" rx="18.583" ry="38.839" transform="translate(-242.868 3830.487) rotate(-45)" fill="none" stroke="#404d61" stroke-linecap="round" stroke-linejoin="round" stroke-width="5"/>
        <path id="Path_30303" data-name="Path 30303" d="M-229.728,3810.246c-36.532,85.021-108.945,108.945-108.945,108.945-7.257,7.257-.844,25.436,14.323,40.6s33.346,21.58,40.6,14.323c0,0,20.616-68.622,108.945-108.945" transform="translate(0 7.102)" fill="none" stroke="#404d61" stroke-linecap="round" stroke-linejoin="round" stroke-width="5"/>
        <path id="Path_30304" data-name="Path 30304" d="M-315.359,3844.976s15.568,26.212,34.24,33.852" transform="translate(30.933 47.945)" fill="none" stroke="#404d61" stroke-linecap="round" stroke-linejoin="round" stroke-width="5"/>
        <path id="Path_30305" data-name="Path 30305" d="M-307.492,3837.109s15.57,26.213,34.24,33.854" transform="translate(40.186 38.695)" fill="none" stroke="#404d61" stroke-linecap="round" stroke-linejoin="round" stroke-width="5"/>
        <path id="Path_30306" data-name="Path 30306" d="M-301.634,3872.544l21.494,37.913,4.461-16.391,15.753,3.832-24.788-43.274" transform="translate(47.075 59.294)" fill="none" stroke="#404d61" stroke-linecap="round" stroke-linejoin="round" stroke-width="5"/>
        <path id="Path_30307" data-name="Path 30307" d="M-284,3849.143h38.2l-11.708,11.927,11.708,12.855h-44.673" transform="translate(60.199 52.849)" fill="none" stroke="#404d61" stroke-linecap="round" stroke-linejoin="round" stroke-width="5"/>
        <line id="Line_641" data-name="Line 641" x1="15.781" y2="20.247" transform="translate(-225.967 3824.563)" fill="none" stroke="#404d61" stroke-linecap="round" stroke-linejoin="round" stroke-width="5"/>
        <path id="Path_30308" data-name="Path 30308" d="M-283.641,3847.673l11.992-13.139s-11.5-11.8-7.634-19.142c0,0,1.989-5.5,15.206,0" transform="translate(68.236 10.276)" fill="none" stroke="#404d61" stroke-linecap="round" stroke-linejoin="round" stroke-width="5"/>
      </g>
      <g id="Group_17787" data-name="Group 17787" transform="translate(-1011.587 1053.699)">
        <path id="Path_30309" data-name="Path 30309" d="M1484.649,98.161l.5-.558c1.09-1.247,1.862-2.2,2.032-2.406a2.108,2.108,0,0,0,.031-2.657c-.2-.251-.972-1.194-2.064-2.439-.624-.717-1.357-1.526-2.089-2.3a32.527,32.527,0,0,0-2.718-2.606c-.919-.8-1.829-1.565-2.7-2.26l-1.282-1c-.177-.124-.4-.281-.623-.432l-1.223-.837.6-1.355c.556-1.263,1.394-3.266,2.225-5.642.711-2.207,1.241-4.528,1.663-6.5a24,24,0,0,0,.416-2.411c.088-.672.118-1.1.127-1.206a2.057,2.057,0,0,0-1.308-1.848c-.081-.033-1.263-.505-2.877-1.082a45.136,45.136,0,0,0-6.635-1.844,41.717,41.717,0,0,0-6-.895l-1.491-.13-.128-1.494a40.475,40.475,0,0,0-.862-5.858,46.958,46.958,0,0,0-1.811-6.6c-1.2-3.378-1.286-3.454-1.7-3.823a2.041,2.041,0,0,0-1.626-.507l-.86.108c-.578.075-1.393.181-2.365.4-1.981.428-4.289.948-6.681,1.718-1.814.636-3.676,1.371-5.52,2.184l-1.365.6-.834-1.239c-.142-.214-.305-.45-.529-.756l-.921-1.174c-.668-.829-1.431-1.742-2.184-2.6a42.278,42.278,0,0,0-4.33-4.314l-.627-.56a18.964,18.964,0,0,0-2.81-2.3,2.075,2.075,0,0,0-2.144.151c-.141.1-1.237.992-2.557,2.152-.723.632-1.526,1.357-2.292,2.08a31.032,31.032,0,0,0-2.6,2.716c-.813.923-1.577,1.84-2.276,2.708l-1.017,1.3c-.116.163-.265.377-.405.587l-.834,1.245-1.367-.607c-1.223-.54-3.2-1.365-5.648-2.225-2.3-.738-4.805-1.3-6.484-1.655a24.251,24.251,0,0,0-2.437-.422l-.868-.108a2.139,2.139,0,0,0-2.172,1.3c-.025.061-.505,1.251-1.08,2.867a45.946,45.946,0,0,0-1.848,6.641,40.4,40.4,0,0,0-.891,5.993l-.128,1.494-1.5.13a40.984,40.984,0,0,0-5.87.862,47.158,47.158,0,0,0-6.608,1.816c-1.781.64-2.985,1.123-3.024,1.139a2.086,2.086,0,0,0-1.291,2.2l.108.829c.073.583.181,1.406.4,2.374a69.127,69.127,0,0,0,1.724,6.7c.819,2.335,1.636,4.285,2.176,5.506l.607,1.365-1.24.835c-.216.145-.457.31-.764.536l-1.159.915c-.84.67-1.751,1.434-2.6,2.178a41.642,41.642,0,0,0-4.385,4.409l-.505.56c-1.916,2.207-2.2,2.645-2.209,2.661a2.093,2.093,0,0,0,.153,2.4c.016.02.837,1.043,2.07,2.453.625.709,1.355,1.52,2.074,2.278a30.888,30.888,0,0,0,2.726,2.618q1.376,1.2,2.725,2.282l1.28,1c.157.11.375.259.587.4l1.237.833-.6,1.363c-.548,1.239-1.375,3.224-2.225,5.648-.693,2.148-1.212,4.4-1.671,6.516-.224,1.019-.334,1.836-.408,2.409l-.106.817a2.085,2.085,0,0,0,1.286,2.219c.079.035,1.265.509,2.881,1.088a46.212,46.212,0,0,0,6.627,1.838,40.4,40.4,0,0,0,6,.9l1.492.134.128,1.49a40.062,40.062,0,0,0,.862,5.866,47.48,47.48,0,0,0,1.815,6.608c1.368,3.841,1.579,4.161,2.823,4.318q.125.012.257.012c.025,0,.312-.018.774-.077l.34-.041c.564-.073,1.384-.183,2.355-.4a68.681,68.681,0,0,0,6.69-1.718c2.321-.815,4.279-1.636,5.51-2.18l1.361-.6.836,1.235c.149.22.324.469.544.776l.909,1.147c.674.848,1.438,1.754,2.178,2.6a41.741,41.741,0,0,0,4.369,4.346l.6.542c1.339,1.17,2.325,1.968,2.417,2.04a2.177,2.177,0,0,0,2.655.008c.122-.1,1.106-.892,2.445-2.066.709-.619,1.514-1.349,2.284-2.074a30.67,30.67,0,0,0,2.588-2.7q1.226-1.391,2.3-2.739l.984-1.261c.139-.192.283-.4.422-.609l.837-1.243,1.365.607c1.229.544,3.207,1.371,5.64,2.223,2.2.711,4.524,1.241,6.5,1.665a24.359,24.359,0,0,0,2.4.412c.679.09,1.1.118,1.2.126a2.056,2.056,0,0,0,1.7-.986,25.44,25.44,0,0,0,1.239-3.185,45.948,45.948,0,0,0,1.85-6.641,40.841,40.841,0,0,0,.9-6l.128-1.494,1.494-.13a40.434,40.434,0,0,0,5.866-.862,48.2,48.2,0,0,0,6.623-1.818c1.765-.638,2.958-1.119,3.012-1.141a2.09,2.09,0,0,0,1.294-2.207l-.108-.835c-.073-.577-.181-1.392-.4-2.366-.436-2.015-.98-4.381-1.722-6.692-.807-2.294-1.632-4.261-2.18-5.5l-.607-1.363,1.239-.835c.226-.153.471-.322.758-.534l1.17-.919c.839-.668,1.753-1.43,2.6-2.178A41.5,41.5,0,0,0,1484.649,98.161Z" fill="#404d61"/>
        <path id="Path_30310" data-name="Path 30310" d="M1479.1,92.954a38.675,38.675,0,0,1-3.971,4.006c-.838.734-1.7,1.457-2.5,2.091l-1.074.848c-.316.232-.579.408-.829.573l-.279.185c-.836.554-1.49.964-1.887,1.21a2.075,2.075,0,0,0-.909,1.218l-.2.709a2.039,2.039,0,0,0,.2,1.5c.222.408.6,1.1.974,1.822.485,1.068,1.4,3.173,2.274,5.677.658,2.042,1.145,4.153,1.536,5.95l.328,1.5-1.431.548a43.947,43.947,0,0,1-6.1,1.661,38.4,38.4,0,0,1-5.889.825c-1,.084-1.781.12-2.225.143a2.072,2.072,0,0,0-1.394.617l-.423.426a2.084,2.084,0,0,0-.6,1.367c-.02.442-.065,1.229-.143,2.233a39.665,39.665,0,0,1-.856,6.019,43.676,43.676,0,0,1-1.632,5.954l-.542,1.439-1.5-.328c-1.681-.361-3.864-.862-5.811-1.49-1.879-.654-3.949-1.473-5.551-2.193-.976-.5-1.665-.87-2.07-1.092a2.08,2.08,0,0,0-1.571-.2l-.6.169a2.079,2.079,0,0,0-1.288.939c-.247.4-.653,1.043-1.18,1.842l-.194.287c-.157.242-.344.528-.454.679l-.95,1.216q-.99,1.238-2.176,2.586a26.644,26.644,0,0,1-2.268,2.376c-.7.662-1.41,1.306-2.044,1.86l-1.188,1.049-1.561-1.4a38.36,38.36,0,0,1-3.976-3.945c-.734-.835-1.451-1.693-2.072-2.468l-.844-1.07c-.212-.287-.369-.524-.518-.744l-.261-.389c-.552-.844-.964-1.5-1.206-1.891a2.067,2.067,0,0,0-1.274-.925l-.643-.181a2.143,2.143,0,0,0-1.522.2c-.4.222-1.094.6-1.824.974-.86.393-3.062,1.361-5.681,2.276-2.07.67-4.265,1.172-5.944,1.532l-1.49.326-.55-1.426a44.42,44.42,0,0,1-1.663-6.1,39.483,39.483,0,0,1-.823-5.875c-.079-1.017-.126-1.791-.149-2.229a2.069,2.069,0,0,0-.619-1.41l-.4-.393a2.072,2.072,0,0,0-1.386-.621c-.45-.024-1.232-.067-2.233-.145a40.057,40.057,0,0,1-6.021-.858,43.555,43.555,0,0,1-5.96-1.626l-1.44-.544.33-1.506c.422-1.924.894-3.957,1.49-5.805.661-1.883,1.478-3.953,2.2-5.553.5-.984.876-1.683,1.107-2.087a2.082,2.082,0,0,0,.185-1.559l-.171-.6a2.1,2.1,0,0,0-.933-1.28c-.4-.253-1.048-.654-1.859-1.19l-.9-.6-1.273-.994c-.823-.662-1.689-1.388-2.565-2.154a26.822,26.822,0,0,1-2.4-2.3c-.654-.689-1.29-1.392-1.854-2.029l-1.047-1.19,1.349-1.5a38.441,38.441,0,0,1,4-4.03c.837-.736,1.7-1.459,2.47-2.074l1.086-.858c.3-.218.544-.385.783-.538l.338-.228c.839-.554,1.491-.964,1.887-1.206a2.089,2.089,0,0,0,.917-1.241l.183-.66a2.026,2.026,0,0,0-.189-1.532c-.226-.408-.6-1.094-.98-1.832-.785-1.726-1.628-3.833-2.272-5.665-.662-2.066-1.145-4.167-1.532-5.954l-.324-1.492,1.421-.55a44.084,44.084,0,0,1,6.095-1.661,39.838,39.838,0,0,1,5.844-.823c1.052-.079,1.832-.126,2.28-.147a2.072,2.072,0,0,0,1.388-.615l.428-.43a2.069,2.069,0,0,0,.6-1.367c.022-.444.063-1.229.145-2.233a40.508,40.508,0,0,1,.85-6.009,44.973,44.973,0,0,1,1.632-5.96l.544-1.437,1.5.32c1.671.361,3.837.854,5.813,1.485,1.92.677,3.994,1.5,5.565,2.2.882.446,1.52.795,1.94,1.023a2.193,2.193,0,0,0,1.673.265l.595-.167a2.088,2.088,0,0,0,1.308-.939c.247-.4.658-1.045,1.17-1.828l.63-.939.99-1.271c.658-.817,1.378-1.681,2.152-2.563a29.581,29.581,0,0,1,2.294-2.4c.691-.654,1.4-1.292,2.038-1.854l1.188-1.041,1.551,1.39a38.711,38.711,0,0,1,3.972,3.943c.74.846,1.467,1.708,2.093,2.492l.835,1.056c.23.316.4.566.556.8l.21.306c.56.858.968,1.5,1.208,1.9a2.1,2.1,0,0,0,1.293.945l.624.171a2.049,2.049,0,0,0,1.518-.189c.406-.22,1.1-.6,1.84-.978.852-.387,3.044-1.355,5.683-2.274a61.132,61.132,0,0,1,5.934-1.532l1.486-.324.554,1.414a42.943,42.943,0,0,1,1.669,6.111,39.662,39.662,0,0,1,.823,5.864c.079,1.027.123,1.805.143,2.248a2.082,2.082,0,0,0,.6,1.371l.428.426a2.1,2.1,0,0,0,1.375.613c.46.024,1.241.065,2.233.145a39.825,39.825,0,0,1,6.026.858,43.57,43.57,0,0,1,5.962,1.63l1.429.544-.32,1.5c-.365,1.687-.862,3.872-1.491,5.817-.634,1.811-1.39,3.723-2.187,5.54-.479.935-.838,1.6-1.064,2.011a2.151,2.151,0,0,0-.24,1.622l.177.613a2.1,2.1,0,0,0,.929,1.286c.4.245,1.047.648,1.862,1.19l.2.132c.367.242.612.408.793.542l1.19.929c.823.658,1.685,1.377,2.551,2.135a30.231,30.231,0,0,1,2.4,2.294c.654.695,1.3,1.4,1.862,2.046l1.039,1.188-1.357,1.524-.568-.509h0Z" transform="translate(2.431 2.436)" fill="#404d61"/>
      </g>
      <text id="必備" transform="translate(414 1162)" fill="#fff" font-size="32" font-family="YuGothicUI-Regular, Yu Gothic UI" letter-spacing="0.06em"><tspan x="-32.96" y="0">必備</tspan></text>
    </g>
  </g>
</svg>
