<svg xmlns="http://www.w3.org/2000/svg" xmlns:xlink="http://www.w3.org/1999/xlink" width="338" height="150" viewBox="0 0 338 150">
  <defs>
    <clipPath id="clip-icon-charitable--not-word">
      <rect width="338" height="150"/>
    </clipPath>
  </defs>
  <g id="icon-charitable--not-word" clip-path="url(#clip-icon-charitable--not-word)">
    <g id="Group_17782" data-name="Group 17782" transform="translate(1998.701 -3329.074)">
      <path id="Path_26483" data-name="Path 26483" d="M-1895.711,3362.132a.6.6,0,0,1,.6.6.6.6,0,0,1-.6.595H-1991.2a.6.6,0,0,1-.595-.595.6.6,0,0,1,.595-.6Z" transform="translate(4.499 21.539)" fill="#404d61" stroke="#404d61" stroke-width="0.5" fill-rule="evenodd"/>
      <path id="Path_26484" data-name="Path 26484" d="M-1757.329,3362.132a.6.6,0,0,1,.594.6.6.6,0,0,1-.594.595H-1852.2a.6.6,0,0,1-.594-.595.6.6,0,0,1,.594-.6Z" transform="translate(95.068 21.539)" fill="#404d61" stroke="#404d61" stroke-width="0.5" fill-rule="evenodd"/>
      <path id="Path_26485" data-name="Path 26485" d="M-1902.409,3413.558a.594.594,0,0,1,.594.595.6.6,0,0,1-.594.595h-85.137a.6.6,0,0,1-.594-.595.594.594,0,0,1,.594-.595Z" transform="translate(6.881 55.047)" fill="#b8c6d7" fill-rule="evenodd"/>
      <path id="Path_26486" data-name="Path 26486" d="M-1764.449,3413.558a.6.6,0,0,1,.595.595.6.6,0,0,1-.595.595h-85.136a.6.6,0,0,1-.595-.595.594.594,0,0,1,.595-.595Z" transform="translate(96.771 55.047)" fill="#b8c6d7" fill-rule="evenodd"/>
      <path id="Path_26487" data-name="Path 26487" d="M-1979.3,3339.243a3.026,3.026,0,0,0,3.021-3.02,3.026,3.026,0,0,0-3.021-3.021,3.027,3.027,0,0,0-3.021,3.021A3.027,3.027,0,0,0-1979.3,3339.243Z" transform="translate(10.671 2.69)" fill="#1e86d5" fill-rule="evenodd"/>
      <path id="Path_26488" data-name="Path 26488" d="M-1874.185,3331.44a10.447,10.447,0,0,1,7.416-7.416,10.452,10.452,0,0,1-7.416-7.416,10.451,10.451,0,0,1-7.415,7.416A10.446,10.446,0,0,1-1874.185,3331.44Z" transform="translate(134.103 36.47)" fill="#1e86d5" fill-rule="evenodd"/>
      <path id="Path_26489" data-name="Path 26489" d="M-1816.525,3339.548a7.38,7.38,0,0,1,5.239-5.237,7.38,7.38,0,0,1-5.239-5.238,7.375,7.375,0,0,1-5.237,5.238A7.376,7.376,0,0,1-1816.525,3339.548Z" transform="translate(115.287 0)" fill="#1e86d5" fill-rule="evenodd"/>
      <path id="Path_26491" data-name="Path 26491" d="M-1996.889,3393.158a1.816,1.816,0,0,0,1.812-1.812,1.816,1.816,0,0,0-1.812-1.812,1.816,1.816,0,0,0-1.812,1.812A1.816,1.816,0,0,0-1996.889,3393.158Z" transform="translate(0 39.394)" fill="#1e86d5" fill-rule="evenodd"/>
      <path id="Path_26495" data-name="Path 26495" d="M-1932.162,3372.981h128.028l-64.014-32.944Z" transform="translate(43.355 7.143)" fill="#ffe4a4" fill-rule="evenodd"/>
      <rect id="Rectangle_5622" data-name="Rectangle 5622" width="312.987" height="4.64" transform="translate(-1980.665 3473.84)" fill="#ffe4a4"/>
      <rect id="Rectangle_5623" data-name="Rectangle 5623" width="4.317" height="79.794" transform="translate(-1757.132 3389.405)" fill="#ffe4a4"/>
      <rect id="Rectangle_5624" data-name="Rectangle 5624" width="312.986" height="4.143" transform="translate(-1980.664 3389.405)" fill="#ffe4a4"/>
      <path id="Path_26496" data-name="Path 26496" d="M-1852.794,3365.838a.594.594,0,0,1,.594-.595.594.594,0,0,1,.595.595v79.794a.594.594,0,0,1-.595.595.594.594,0,0,1-.594-.595Z" transform="translate(95.068 23.567)" fill="#404d61" stroke="#404d61" stroke-width="0.5" fill-rule="evenodd"/>
      <rect id="Rectangle_5625" data-name="Rectangle 5625" width="134.08" height="4.64" transform="translate(-1891.212 3380.124)" fill="#ffe4a4"/>
      <rect id="Rectangle_5626" data-name="Rectangle 5626" width="4.317" height="79.794" transform="translate(-1895.528 3389.405)" fill="#ffe4a4"/>
      <path id="Path_26497" data-name="Path 26497" d="M-1989.462,3420.366a.594.594,0,0,1-.594-.595.6.6,0,0,1,.594-.595h319.315a.6.6,0,0,1,.594.595.6.6,0,0,1-.594.595Z" transform="translate(5.633 58.708)" fill="#404d61" stroke="#404d61" stroke-width="0.5" fill-rule="evenodd"/>
      <path id="Path_26499" data-name="Path 26499" d="M-1906.74,3360.813a.6.6,0,0,1-.594-.595.594.594,0,0,1,.594-.594h7.972a.594.594,0,0,1,.595.594.6.6,0,0,1-.595.595Zm10.613,0h96.23v8.093h-132.89v-8.093h19.084a.6.6,0,0,0,.594-.595.594.594,0,0,0-.594-.594h-19.68a.6.6,0,0,0-.595.594v9.282a.6.6,0,0,0,.595.595H-1799.3a.594.594,0,0,0,.595-.595v-9.282a.594.594,0,0,0-.595-.594h-96.825a.594.594,0,0,0-.594.594A.6.6,0,0,0-1896.128,3360.813Z" transform="translate(42.171 19.905)" fill="#404d61" stroke="#404d61" stroke-width="0.5" fill-rule="evenodd"/>
      <path id="Path_26500" data-name="Path 26500" d="M-1938.886,3416.368h152.259a.594.594,0,0,1,.595.595v4.64a.594.594,0,0,1-.595.594h-152.259a.594.594,0,0,1-.594-.594v-4.64a.594.594,0,0,1,.594-.595Zm151.665,1.187h-151.07v3.453h151.07Z" transform="translate(38.586 56.877)" fill="#404d61" stroke="#404d61" stroke-width="0.5" fill-rule="evenodd"/>
      <path id="Path_26501" data-name="Path 26501" d="M-1799.521,3376.061a.594.594,0,0,1-.593-.593.592.592,0,0,1,.593-.591h8.651l-72.666-37.4-72.664,37.4h8.65a.592.592,0,0,1,.593.591.594.594,0,0,1-.593.593h-11.066a.59.59,0,0,1-.558-.321.591.591,0,0,1,.256-.8l75.111-38.657v0a.594.594,0,0,1,.543,0l75.11,38.657h0a.594.594,0,0,1,.321.527.591.591,0,0,1-.591.591Z" transform="translate(38.743 4.656)" fill="#404d61" stroke="#404d61" stroke-width="0.5" fill-rule="evenodd"/>
      <path id="Path_26502" data-name="Path 26502" d="M-1902.188,3352.077a.594.594,0,0,1-.595-.594.594.594,0,0,1,.595-.595h28.88a.594.594,0,0,1,.595.595.594.594,0,0,1-.595.594Zm8.21-6.835a.594.594,0,0,1-.595-.594.6.6,0,0,1,.595-.595h12.461a.6.6,0,0,1,.595.595.594.594,0,0,1-.595.594Z" transform="translate(62.497 9.759)" fill="#404d61" stroke="#404d61" stroke-width="0.5" fill-rule="evenodd"/>
      <path id="Path_26503" data-name="Path 26503" d="M-1895.956,3365.244a.6.6,0,0,1,.6.595.6.6,0,0,1-.6.595h-94.871a.594.594,0,0,1-.594-.595.594.594,0,0,1,.594-.595Z" transform="translate(4.744 23.567)" fill="#404d61" stroke="#404d61" stroke-width="0.5" fill-rule="evenodd"/>
      <path id="Path_26504" data-name="Path 26504" d="M-1757.329,3365.244a.594.594,0,0,1,.594.595.594.594,0,0,1-.594.595H-1852.2a.594.594,0,0,1-.594-.595.594.594,0,0,1,.594-.595Z" transform="translate(95.068 23.567)" fill="#404d61" stroke="#404d61" stroke-width="0.5" fill-rule="evenodd"/>
      <path id="Path_26505" data-name="Path 26505" d="M-1924.615,3365.6h10.455v8.364h-3.3l1.45,63.065h1.847v8.364h-10.455v-8.364h2.262v-63.065h-2.262Z" transform="translate(48.272 23.801)" fill="#ffe4a4" fill-rule="evenodd"/>
      <path id="Path_26506" data-name="Path 26506" d="M-1927.972,3408.493h16.387a.6.6,0,0,1,.595.595v8.365a.6.6,0,0,1-.595.595h-16.387a.6.6,0,0,1-.594-.595v-8.365a.6.6,0,0,1,.594-.595Zm15.792,1.189h-15.2v7.176h15.2Z" transform="translate(45.698 51.746)" fill="#404d61" stroke="#404d61" stroke-width="0.5" fill-rule="evenodd"/>
      <path id="Path_26507" data-name="Path 26507" d="M-1927.972,3365.244h16.387a.6.6,0,0,1,.595.595v8.364a.6.6,0,0,1-.595.595h-16.387a.6.6,0,0,1-.594-.595v-8.364a.6.6,0,0,1,.594-.595Zm15.792,1.189h-15.2v7.174h15.2Z" transform="translate(45.698 23.567)" fill="#404d61" stroke="#404d61" stroke-width="0.5" fill-rule="evenodd"/>
      <path id="Path_26508" data-name="Path 26508" d="M-1925.494,3370.308h9.942a.6.6,0,0,1,.595.595l0,.036,1.448,63.017a.593.593,0,0,1-.58.6h-12.854a.6.6,0,0,1-.594-.594l0-.063,1.448-63.014a.592.592,0,0,1,.591-.58v0Zm9.363,1.189h-8.783l-1.424,61.875h11.629Z" transform="translate(46.367 26.867)" fill="#404d61" stroke="#404d61" stroke-width="0.5" fill-rule="evenodd"/>
      <path id="Path_26509" data-name="Path 26509" d="M-1864.177,3365.6h10.455v8.364h-3.3l1.45,63.065h1.848v8.364h-10.455v-8.364h2.262v-63.065h-2.262Z" transform="translate(87.652 23.801)" fill="#ffe4a4" fill-rule="evenodd"/>
      <path id="Path_26510" data-name="Path 26510" d="M-1867.532,3408.493h16.385a.6.6,0,0,1,.594.595v8.365a.594.594,0,0,1-.594.595h-16.385a.594.594,0,0,1-.595-.595v-8.365a.6.6,0,0,1,.595-.595Zm15.79,1.189h-15.2v7.176h15.2Z" transform="translate(85.078 51.746)" fill="#404d61" stroke="#404d61" stroke-width="0.5" fill-rule="evenodd"/>
      <path id="Path_26511" data-name="Path 26511" d="M-1867.532,3365.244h16.385a.594.594,0,0,1,.594.595v8.364a.6.6,0,0,1-.594.595h-16.385a.6.6,0,0,1-.595-.595v-8.364a.594.594,0,0,1,.595-.595Zm15.79,1.189h-15.2v7.174h15.2Z" transform="translate(85.078 23.567)" fill="#404d61" stroke="#404d61" stroke-width="0.5" fill-rule="evenodd"/>
      <path id="Path_26512" data-name="Path 26512" d="M-1865.055,3370.308h9.941a.594.594,0,0,1,.594.595v.036l1.45,63.017a.594.594,0,0,1-.582.6h-12.853a.594.594,0,0,1-.594-.594l0-.063,1.45-63.014a.59.59,0,0,1,.591-.58v0Zm9.363,1.189h-8.784l-1.422,61.875h11.629Z" transform="translate(85.746 26.867)" fill="#404d61" stroke="#404d61" stroke-width="0.5" fill-rule="evenodd"/>
      <path id="Path_26513" data-name="Path 26513" d="M-1894.4,3365.6h10.456v8.364h-3.3l1.45,63.065h1.848v8.364H-1894.4v-8.364h2.263v-63.065h-2.263Z" transform="translate(67.962 23.801)" fill="#ffe4a4" fill-rule="evenodd"/>
      <path id="Path_26514" data-name="Path 26514" d="M-1897.751,3408.493h16.385a.6.6,0,0,1,.595.595v8.365a.594.594,0,0,1-.595.595h-16.385a.594.594,0,0,1-.595-.595v-8.365a.6.6,0,0,1,.595-.595Zm15.79,1.189h-15.2v7.176h15.2Z" transform="translate(65.388 51.746)" fill="#404d61" stroke="#404d61" stroke-width="0.5" fill-rule="evenodd"/>
      <path id="Path_26515" data-name="Path 26515" d="M-1897.751,3365.244h16.385a.594.594,0,0,1,.595.595v8.364a.6.6,0,0,1-.595.595h-16.385a.6.6,0,0,1-.595-.595v-8.364a.594.594,0,0,1,.595-.595Zm15.79,1.189h-15.2v7.174h15.2Z" transform="translate(65.388 23.567)" fill="#404d61" stroke="#404d61" stroke-width="0.5" fill-rule="evenodd"/>
      <path id="Path_26516" data-name="Path 26516" d="M-1895.275,3370.308h9.941a.594.594,0,0,1,.594.595v.036l1.45,63.017a.6.6,0,0,1-.582.6h-12.852a.594.594,0,0,1-.595-.594l0-.063,1.448-63.014a.593.593,0,0,1,.593-.58v0Zm9.363,1.189h-8.785l-1.422,61.875h11.629Z" transform="translate(66.057 26.867)" fill="#404d61" stroke="#404d61" stroke-width="0.5" fill-rule="evenodd"/>
      <path id="Path_26517" data-name="Path 26517" d="M-1911.247,3375.879a.593.593,0,0,1-.817-.191.594.594,0,0,1,.189-.817,12.033,12.033,0,0,1,6.357-1.817,12.034,12.034,0,0,1,6.359,1.817.594.594,0,0,1,.189.817.593.593,0,0,1-.817.191,10.84,10.84,0,0,0-5.731-1.637A10.833,10.833,0,0,0-1911.247,3375.879Z" transform="translate(56.391 28.655)" fill="#404d61" stroke="#404d61" stroke-width="0.5" fill-rule="evenodd"/>
      <path id="Path_26518" data-name="Path 26518" d="M-1908.5,3373.648a.6.6,0,0,1,.595-.595.6.6,0,0,1,.594.595v18.606a.594.594,0,0,1-.594.595.6.6,0,0,1-.595-.595Z" transform="translate(58.775 28.655)" fill="#404d61" stroke="#404d61" stroke-width="0.5" fill-rule="evenodd"/>
      <path id="Path_26519" data-name="Path 26519" d="M-1912.155,3377.312a.6.6,0,0,1,.595-.595.594.594,0,0,1,.594.595v12.742h10.9v-13.941a.594.594,0,0,1,.595-.594.6.6,0,0,1,.594.594v14.536a.6.6,0,0,1-.594.595h-12.088a.6.6,0,0,1-.595-.595Z" transform="translate(56.39 30.261)" fill="#404d61" stroke="#404d61" stroke-width="0.5" fill-rule="evenodd"/>
      <path id="Path_26526" data-name="Path 26526" d="M-1962.17,3375.879a.593.593,0,0,1-.817-.191.594.594,0,0,1,.19-.817,12.031,12.031,0,0,1,6.357-1.817,12.034,12.034,0,0,1,6.359,1.817.594.594,0,0,1,.19.817.593.593,0,0,1-.817.191,10.84,10.84,0,0,0-5.731-1.637A10.833,10.833,0,0,0-1962.17,3375.879Z" transform="translate(30.711 28.655)" fill="#404d61" stroke="#404d61" stroke-width="0.5" fill-rule="evenodd"/>
      <path id="Path_26527" data-name="Path 26527" d="M-1959.418,3373.648a.6.6,0,0,1,.593-.595.6.6,0,0,1,.594.595v18.606a.594.594,0,0,1-.594.595.594.594,0,0,1-.593-.595Z" transform="translate(33.095 28.655)" fill="#404d61" stroke="#404d61" stroke-width="0.5" fill-rule="evenodd"/>
      <path id="Path_26528" data-name="Path 26528" d="M-1963.078,3377.312a.6.6,0,0,1,.595-.595.594.594,0,0,1,.594.595v12.742h10.9v-13.941a.594.594,0,0,1,.594-.594.6.6,0,0,1,.595.594v14.536a.6.6,0,0,1-.595.595h-12.087a.6.6,0,0,1-.595-.595Z" transform="translate(30.711 30.261)" fill="#404d61" stroke="#404d61" stroke-width="0.5" fill-rule="evenodd"/>
      <path id="Path_26529" data-name="Path 26529" d="M-1962.17,3395.423a.594.594,0,0,1-.817-.189.594.594,0,0,1,.19-.818,12.031,12.031,0,0,1,6.357-1.816,12.038,12.038,0,0,1,6.359,1.816.6.6,0,0,1,.19.818.594.594,0,0,1-.817.189,10.847,10.847,0,0,0-5.731-1.635A10.843,10.843,0,0,0-1962.17,3395.423Z" transform="translate(30.711 41.391)" fill="#404d61" stroke="#404d61" stroke-width="0.5" fill-rule="evenodd"/>
      <path id="Path_26530" data-name="Path 26530" d="M-1959.418,3393.193a.594.594,0,0,1,.593-.594.594.594,0,0,1,.594.594V3411.8a.6.6,0,0,1-.594.595.6.6,0,0,1-.593-.595Z" transform="translate(33.095 41.391)" fill="#404d61" stroke="#404d61" stroke-width="0.5" fill-rule="evenodd"/>
      <path id="Path_26531" data-name="Path 26531" d="M-1963.078,3396.856a.6.6,0,0,1,.595-.594.6.6,0,0,1,.594.594V3409.6h10.9v-13.941a.594.594,0,0,1,.594-.595.6.6,0,0,1,.595.595v14.536a.6.6,0,0,1-.595.594h-12.087a.6.6,0,0,1-.595-.594Z" transform="translate(30.711 42.997)" fill="#404d61" stroke="#404d61" stroke-width="0.5" fill-rule="evenodd"/>
      <path id="Path_26532" data-name="Path 26532" d="M-1977.761,3375.879a.593.593,0,0,1-.817-.191.594.594,0,0,1,.19-.817,12.028,12.028,0,0,1,6.357-1.817,12.022,12.022,0,0,1,6.357,1.817.594.594,0,0,1,.191.817.6.6,0,0,1-.819.191,10.829,10.829,0,0,0-5.729-1.637A10.83,10.83,0,0,0-1977.761,3375.879Z" transform="translate(13.053 28.655)" fill="#404d61" stroke="#404d61" stroke-width="0.5" fill-rule="evenodd"/>
      <path id="Path_26533" data-name="Path 26533" d="M-1975.01,3373.648a.6.6,0,0,1,.595-.595.6.6,0,0,1,.594.595v18.606a.594.594,0,0,1-.594.595.6.6,0,0,1-.595-.595Z" transform="translate(15.436 28.655)" fill="#404d61" stroke="#404d61" stroke-width="0.5" fill-rule="evenodd"/>
      <path id="Path_26534" data-name="Path 26534" d="M-1978.669,3377.312a.594.594,0,0,1,.595-.595.594.594,0,0,1,.594.595v12.742h10.9v-13.941a.6.6,0,0,1,.595-.594.594.594,0,0,1,.594.594v14.536a.6.6,0,0,1-.594.595h-12.086a.6.6,0,0,1-.595-.595Z" transform="translate(13.052 30.261)" fill="#404d61" stroke="#404d61" stroke-width="0.5" fill-rule="evenodd"/>
      <path id="Path_26535" data-name="Path 26535" d="M-1977.761,3395.423a.593.593,0,0,1-.817-.189.6.6,0,0,1,.19-.818,12.032,12.032,0,0,1,6.357-1.816,12.026,12.026,0,0,1,6.357,1.816.6.6,0,0,1,.191.818.6.6,0,0,1-.819.189,10.84,10.84,0,0,0-5.729-1.635A10.842,10.842,0,0,0-1977.761,3395.423Z" transform="translate(13.053 41.391)" fill="#404d61" stroke="#404d61" stroke-width="0.5" fill-rule="evenodd"/>
      <path id="Path_26536" data-name="Path 26536" d="M-1975.01,3393.193a.594.594,0,0,1,.595-.594.594.594,0,0,1,.594.594V3411.8a.6.6,0,0,1-.594.595.6.6,0,0,1-.595-.595Z" transform="translate(15.436 41.391)" fill="#404d61" stroke="#404d61" stroke-width="0.5" fill-rule="evenodd"/>
      <path id="Path_26537" data-name="Path 26537" d="M-1978.669,3396.856a.6.6,0,0,1,.595-.594.6.6,0,0,1,.594.594V3409.6h10.9v-13.941a.6.6,0,0,1,.595-.595.594.594,0,0,1,.594.595v14.536a.6.6,0,0,1-.594.594h-12.086a.6.6,0,0,1-.595-.594Z" transform="translate(13.052 42.997)" fill="#404d61" stroke="#404d61" stroke-width="0.5" fill-rule="evenodd"/>
      <path id="Path_26538" data-name="Path 26538" d="M-1881.028,3375.879a.594.594,0,0,1-.818-.191.593.593,0,0,1,.192-.817,12.023,12.023,0,0,1,6.357-1.817,12.022,12.022,0,0,1,6.357,1.817.594.594,0,0,1,.192.817.6.6,0,0,1-.819.191,10.831,10.831,0,0,0-5.729-1.637A10.838,10.838,0,0,0-1881.028,3375.879Z" transform="translate(76.081 28.655)" fill="#404d61" stroke="#404d61" stroke-width="0.5" fill-rule="evenodd"/>
      <path id="Path_26539" data-name="Path 26539" d="M-1878.276,3373.648a.6.6,0,0,1,.595-.595.6.6,0,0,1,.594.595v18.606a.594.594,0,0,1-.594.595.594.594,0,0,1-.595-.595Z" transform="translate(78.465 28.655)" fill="#404d61" stroke="#404d61" stroke-width="0.5" fill-rule="evenodd"/>
      <path id="Path_26540" data-name="Path 26540" d="M-1881.935,3377.312a.6.6,0,0,1,.595-.595.6.6,0,0,1,.594.595v12.742h10.9v-13.941a.6.6,0,0,1,.595-.594.594.594,0,0,1,.594.594v14.536a.6.6,0,0,1-.594.595h-12.086a.6.6,0,0,1-.595-.595Z" transform="translate(76.081 30.261)" fill="#404d61" stroke="#404d61" stroke-width="0.5" fill-rule="evenodd"/>
      <path id="Path_26541" data-name="Path 26541" d="M-1933.978,3365.838a.6.6,0,0,1,.595-.595.6.6,0,0,1,.6.595v79.794a.6.6,0,0,1-.6.595.6.6,0,0,1-.595-.595Z" transform="translate(42.171 23.567)" fill="#404d61" stroke="#404d61" stroke-width="0.5" fill-rule="evenodd"/>
      <path id="Path_26542" data-name="Path 26542" d="M-1814.513,3375.879a.593.593,0,0,1-.818-.191.594.594,0,0,1,.19-.817,12.032,12.032,0,0,1,6.357-1.817,12.023,12.023,0,0,1,6.357,1.817.593.593,0,0,1,.191.817.6.6,0,0,1-.819.191,10.831,10.831,0,0,0-5.729-1.637A10.83,10.83,0,0,0-1814.513,3375.879Z" transform="translate(119.419 28.655)" fill="#404d61" stroke="#404d61" stroke-width="0.5" fill-rule="evenodd"/>
      <path id="Path_26543" data-name="Path 26543" d="M-1811.762,3373.648a.6.6,0,0,1,.594-.595.6.6,0,0,1,.594.595v18.606a.594.594,0,0,1-.594.595.594.594,0,0,1-.594-.595Z" transform="translate(121.803 28.655)" fill="#404d61" stroke="#404d61" stroke-width="0.5" fill-rule="evenodd"/>
      <path id="Path_26544" data-name="Path 26544" d="M-1815.421,3377.312a.6.6,0,0,1,.595-.595.594.594,0,0,1,.594.595v12.742h10.9v-13.941a.6.6,0,0,1,.594-.594.594.594,0,0,1,.594.594v14.536a.594.594,0,0,1-.594.595h-12.086a.6.6,0,0,1-.595-.595Z" transform="translate(119.419 30.261)" fill="#404d61" stroke="#404d61" stroke-width="0.5" fill-rule="evenodd"/>
      <path id="Path_26545" data-name="Path 26545" d="M-1814.513,3395.423a.594.594,0,0,1-.818-.189.6.6,0,0,1,.19-.818,12.036,12.036,0,0,1,6.357-1.816,12.027,12.027,0,0,1,6.357,1.816.594.594,0,0,1,.191.818.6.6,0,0,1-.819.189,10.842,10.842,0,0,0-5.729-1.635A10.841,10.841,0,0,0-1814.513,3395.423Z" transform="translate(119.419 41.391)" fill="#404d61" stroke="#404d61" stroke-width="0.5" fill-rule="evenodd"/>
      <path id="Path_26546" data-name="Path 26546" d="M-1811.762,3393.193a.594.594,0,0,1,.594-.594.594.594,0,0,1,.594.594V3411.8a.6.6,0,0,1-.594.595.6.6,0,0,1-.594-.595Z" transform="translate(121.803 41.391)" fill="#404d61" stroke="#404d61" stroke-width="0.5" fill-rule="evenodd"/>
      <path id="Path_26547" data-name="Path 26547" d="M-1815.421,3396.856a.6.6,0,0,1,.595-.594.6.6,0,0,1,.594.594V3409.6h10.9v-13.941a.6.6,0,0,1,.594-.595.594.594,0,0,1,.594.595v14.536a.6.6,0,0,1-.594.594h-12.086a.6.6,0,0,1-.595-.594Z" transform="translate(119.419 42.997)" fill="#404d61" stroke="#404d61" stroke-width="0.5" fill-rule="evenodd"/>
      <path id="Path_26548" data-name="Path 26548" d="M-1830.105,3375.879a.594.594,0,0,1-.818-.191.593.593,0,0,1,.192-.817,12.023,12.023,0,0,1,6.357-1.817,12.026,12.026,0,0,1,6.357,1.817.594.594,0,0,1,.19.817.594.594,0,0,1-.818.191,10.828,10.828,0,0,0-5.729-1.637A10.839,10.839,0,0,0-1830.105,3375.879Z" transform="translate(101.76 28.655)" fill="#404d61" stroke="#404d61" stroke-width="0.5" fill-rule="evenodd"/>
      <path id="Path_26549" data-name="Path 26549" d="M-1827.353,3373.648a.6.6,0,0,1,.594-.595.6.6,0,0,1,.595.595v18.606a.6.6,0,0,1-.595.595.594.594,0,0,1-.594-.595Z" transform="translate(104.144 28.655)" fill="#404d61" stroke="#404d61" stroke-width="0.5" fill-rule="evenodd"/>
      <path id="Path_26550" data-name="Path 26550" d="M-1831.012,3377.312a.594.594,0,0,1,.594-.595.6.6,0,0,1,.594.595v12.742h10.9v-13.941a.594.594,0,0,1,.594-.594.594.594,0,0,1,.595.594v14.536a.6.6,0,0,1-.595.595h-12.086a.6.6,0,0,1-.594-.595Z" transform="translate(101.76 30.261)" fill="#404d61" stroke="#404d61" stroke-width="0.5" fill-rule="evenodd"/>
      <path id="Path_26551" data-name="Path 26551" d="M-1830.105,3395.423a.594.594,0,0,1-.818-.189.594.594,0,0,1,.192-.818,12.027,12.027,0,0,1,6.357-1.816,12.029,12.029,0,0,1,6.357,1.816.6.6,0,0,1,.19.818.594.594,0,0,1-.818.189,10.839,10.839,0,0,0-5.729-1.635A10.85,10.85,0,0,0-1830.105,3395.423Z" transform="translate(101.76 41.391)" fill="#404d61" stroke="#404d61" stroke-width="0.5" fill-rule="evenodd"/>
      <path id="Path_26552" data-name="Path 26552" d="M-1827.353,3393.193a.594.594,0,0,1,.594-.594.6.6,0,0,1,.595.594V3411.8a.6.6,0,0,1-.595.595.6.6,0,0,1-.594-.595Z" transform="translate(104.144 41.391)" fill="#404d61" stroke="#404d61" stroke-width="0.5" fill-rule="evenodd"/>
      <path id="Path_26553" data-name="Path 26553" d="M-1831.012,3396.856a.6.6,0,0,1,.594-.594.6.6,0,0,1,.594.594V3409.6h10.9v-13.941a.594.594,0,0,1,.594-.595.6.6,0,0,1,.595.595v14.536a.6.6,0,0,1-.595.594h-12.086a.6.6,0,0,1-.594-.594Z" transform="translate(101.76 42.997)" fill="#404d61" stroke="#404d61" stroke-width="0.5" fill-rule="evenodd"/>
      <path id="Path_26560" data-name="Path 26560" d="M-1903.625,3414.928a.594.594,0,0,1,.594.595.594.594,0,0,1-.594.594h-82.053a.594.594,0,0,1-.595-.594.594.594,0,0,1,.595-.595Z" transform="translate(8.098 55.939)" fill="#404d61" stroke="#404d61" stroke-width="0.5" fill-rule="evenodd"/>
      <path id="Path_26561" data-name="Path 26561" d="M-1767.532,3414.928a.594.594,0,0,1,.594.595.594.594,0,0,1-.594.594h-82.053a.594.594,0,0,1-.595-.594.594.594,0,0,1,.595-.595Z" transform="translate(96.771 55.939)" fill="#404d61" stroke="#404d61" stroke-width="0.5" fill-rule="evenodd"/>
      <path id="Path_26562" data-name="Path 26562" d="M-1933.384,3411.686a.6.6,0,0,1-.595-.595.6.6,0,0,1,.595-.594h8.938a.594.594,0,0,1,.595.594.594.594,0,0,1-.595.595Zm25.323,0a.6.6,0,0,1-.595-.595.6.6,0,0,1,.595-.594h33.525a.594.594,0,0,1,.594.594.594.594,0,0,1-.594.595Zm49.91,0a.6.6,0,0,1-.595-.595.6.6,0,0,1,.595-.594h33.524a.594.594,0,0,1,.594.594.594.594,0,0,1-.594.595Zm49.909,0a.6.6,0,0,1-.595-.595.594.594,0,0,1,.595-.594h8.938a.594.594,0,0,1,.595.594.594.594,0,0,1-.595.595Z" transform="translate(42.171 53.052)" fill="#404d61" stroke="#404d61" stroke-width="0.5" fill-rule="evenodd"/>
      <path id="Path_26563" data-name="Path 26563" d="M-1936,3413.558h142.713a.6.6,0,0,1,.595.595v4.641a.6.6,0,0,1-.595.593H-1936a.593.593,0,0,1-.595-.593v-4.641a.6.6,0,0,1,.595-.595Zm142.119,1.189H-1935.4v3.451h141.524Z" transform="translate(40.469 55.047)" fill="#404d61" stroke="#404d61" stroke-width="0.5" fill-rule="evenodd"/>
      <path id="Path_26564" data-name="Path 26564" d="M-1975.507,3362.727a.6.6,0,0,1,.594-.594.6.6,0,0,1,.595.594v5.14a.6.6,0,0,1-.595.595.6.6,0,0,1-.594-.595v-5.14Zm-10.8,0a.6.6,0,0,1,.595-.6.6.6,0,0,1,.595.6v5.138a.594.594,0,0,1-.595.595.594.594,0,0,1-.595-.595v-5.138Zm86.431,0a.6.6,0,0,1,.595-.6.6.6,0,0,1,.6.6v5.138a.6.6,0,0,1-.6.595.6.6,0,0,1-.595-.595v-5.138Zm-10.8,0a.6.6,0,0,1,.595-.594.6.6,0,0,1,.595.594v5.14a.6.6,0,0,1-.595.595.6.6,0,0,1-.595-.595v-5.14Zm-10.8,0a.6.6,0,0,1,.594-.594.6.6,0,0,1,.595.594v5.14a.6.6,0,0,1-.595.595.6.6,0,0,1-.594-.595v-5.14Zm-10.8,0a.6.6,0,0,1,.595-.594.594.594,0,0,1,.594.594v5.14a.6.6,0,0,1-.594.595.6.6,0,0,1-.595-.595v-5.14Zm-10.8,0a.6.6,0,0,1,.595-.594.6.6,0,0,1,.595.594v5.14a.6.6,0,0,1-.595.595.6.6,0,0,1-.595-.595v-5.14Zm-10.8,0a.6.6,0,0,1,.595-.594.6.6,0,0,1,.595.594v5.14a.6.6,0,0,1-.595.595.6.6,0,0,1-.595-.595v-5.14Zm-10.8,0a.6.6,0,0,1,.594-.594.6.6,0,0,1,.6.594v5.14a.6.6,0,0,1-.6.595.6.6,0,0,1-.594-.595Z" transform="translate(8.073 21.539)" fill="#404d61" stroke="#404d61" stroke-width="0.5" fill-rule="evenodd"/>
      <path id="Path_26565" data-name="Path 26565" d="M-1841.99,3362.727a.6.6,0,0,1,.595-.594.6.6,0,0,1,.594.594v5.14a.6.6,0,0,1-.594.595.6.6,0,0,1-.595-.595v-5.14Zm-10.8,0a.6.6,0,0,1,.594-.6.6.6,0,0,1,.595.6v5.138a.594.594,0,0,1-.595.595.594.594,0,0,1-.594-.595v-5.138Zm86.431,0a.6.6,0,0,1,.595-.6.6.6,0,0,1,.594.6v5.138a.594.594,0,0,1-.594.595.6.6,0,0,1-.595-.595v-5.138Zm-10.8,0a.6.6,0,0,1,.594-.594.6.6,0,0,1,.595.594v5.14a.6.6,0,0,1-.595.595.6.6,0,0,1-.594-.595v-5.14Zm-10.8,0a.6.6,0,0,1,.594-.594.6.6,0,0,1,.594.594v5.14a.6.6,0,0,1-.594.595.6.6,0,0,1-.594-.595v-5.14Zm-10.8,0a.6.6,0,0,1,.595-.594.6.6,0,0,1,.594.594v5.14a.6.6,0,0,1-.594.595.6.6,0,0,1-.595-.595v-5.14Zm-10.8,0a.6.6,0,0,1,.595-.594.6.6,0,0,1,.594.594v5.14a.6.6,0,0,1-.594.595.6.6,0,0,1-.595-.595v-5.14Zm-10.8,0a.6.6,0,0,1,.594-.594.6.6,0,0,1,.595.594v5.14a.6.6,0,0,1-.595.595.6.6,0,0,1-.594-.595v-5.14Zm-10.8,0a.6.6,0,0,1,.595-.594.6.6,0,0,1,.594.594v5.14a.6.6,0,0,1-.594.595.6.6,0,0,1-.595-.595Z" transform="translate(95.068 21.539)" fill="#404d61" stroke="#404d61" stroke-width="0.5" fill-rule="evenodd"/>
      <path id="Path_26569" data-name="Path 26569" d="M-1931.656,3373.742a.593.593,0,0,1-.8-.257.592.592,0,0,1,.256-.8l64.014-32.945a.591.591,0,0,1,.543,0h0l64.013,32.945a.593.593,0,0,1,.256.8.593.593,0,0,1-.8.257l-63.742-32.806Z" transform="translate(43.121 6.909)" fill="#404d61" stroke="#404d61" stroke-width="0.5" fill-rule="evenodd"/>
      <path id="Path_26570" data-name="Path 26570" d="M-1978.074,3378.45a.594.594,0,0,1-.595-.595.6.6,0,0,1,.595-.595h12.086a.6.6,0,0,1,.594.595.594.594,0,0,1-.594.595Z" transform="translate(13.052 31.397)" fill="#404d61" stroke="#404d61" stroke-width="0.5" fill-rule="evenodd"/>
      <path id="Path_26571" data-name="Path 26571" d="M-1962.483,3378.45a.6.6,0,0,1-.595-.595.6.6,0,0,1,.595-.595h12.087a.6.6,0,0,1,.595.595.6.6,0,0,1-.595.595Z" transform="translate(30.711 31.397)" fill="#404d61" stroke="#404d61" stroke-width="0.5" fill-rule="evenodd"/>
      <path id="Path_26573" data-name="Path 26573" d="M-1911.56,3378.45a.6.6,0,0,1-.595-.595.6.6,0,0,1,.595-.595h12.088a.6.6,0,0,1,.594.595.594.594,0,0,1-.594.595Z" transform="translate(56.39 31.397)" fill="#404d61" stroke="#404d61" stroke-width="0.5" fill-rule="evenodd"/>
      <path id="Path_26574" data-name="Path 26574" d="M-1881.34,3378.45a.6.6,0,0,1-.595-.595.6.6,0,0,1,.595-.595h12.086a.6.6,0,0,1,.594.595.594.594,0,0,1-.594.595Z" transform="translate(76.081 31.397)" fill="#404d61" stroke="#404d61" stroke-width="0.5" fill-rule="evenodd"/>
      <path id="Path_26576" data-name="Path 26576" d="M-1830.417,3378.45a.594.594,0,0,1-.594-.595.6.6,0,0,1,.594-.595h12.086a.6.6,0,0,1,.595.595.6.6,0,0,1-.595.595Z" transform="translate(101.76 31.397)" fill="#404d61" stroke="#404d61" stroke-width="0.5" fill-rule="evenodd"/>
      <path id="Path_26577" data-name="Path 26577" d="M-1814.827,3378.45a.6.6,0,0,1-.595-.595.6.6,0,0,1,.595-.595h12.086a.6.6,0,0,1,.594.595.594.594,0,0,1-.594.595Z" transform="translate(119.419 31.397)" fill="#404d61" stroke="#404d61" stroke-width="0.5" fill-rule="evenodd"/>
      <path id="Path_26578" data-name="Path 26578" d="M-1978.074,3398a.594.594,0,0,1-.595-.595.594.594,0,0,1,.595-.595h12.086a.594.594,0,0,1,.594.595.594.594,0,0,1-.594.595Z" transform="translate(13.052 44.132)" fill="#404d61" stroke="#404d61" stroke-width="0.5" fill-rule="evenodd"/>
      <path id="Path_26579" data-name="Path 26579" d="M-1962.483,3398a.6.6,0,0,1-.595-.595.6.6,0,0,1,.595-.595h12.087a.6.6,0,0,1,.595.595.6.6,0,0,1-.595.595Z" transform="translate(30.711 44.132)" fill="#404d61" stroke="#404d61" stroke-width="0.5" fill-rule="evenodd"/>
      <path id="Path_26582" data-name="Path 26582" d="M-1830.417,3398a.594.594,0,0,1-.594-.595.594.594,0,0,1,.594-.595h12.086a.6.6,0,0,1,.595.595.6.6,0,0,1-.595.595Z" transform="translate(101.76 44.132)" fill="#404d61" stroke="#404d61" stroke-width="0.5" fill-rule="evenodd"/>
      <path id="Path_26583" data-name="Path 26583" d="M-1814.827,3398a.6.6,0,0,1-.595-.595.6.6,0,0,1,.595-.595h12.086a.594.594,0,0,1,.594.595.594.594,0,0,1-.594.595Z" transform="translate(119.419 44.132)" fill="#404d61" stroke="#404d61" stroke-width="0.5" fill-rule="evenodd"/>
      <path id="Path_26585" data-name="Path 26585" d="M-1912.855,3392.6h16.36a.594.594,0,0,1,.595.594v29.56a.6.6,0,0,1-.595.595h-16.36a.6.6,0,0,1-.594-.595v-29.56a.6.6,0,0,1,.594-.594Zm15.766,1.189h-15.171v28.371h15.171Z" transform="translate(55.547 41.391)" fill="#404d61" stroke="#404d61" stroke-width="0.5" fill-rule="evenodd"/>
      <path id="Path_26586" data-name="Path 26586" d="M-1908.5,3393.193a.6.6,0,0,1,.595-.594.594.594,0,0,1,.594.594v29.56a.594.594,0,0,1-.594.595.6.6,0,0,1-.595-.595Z" transform="translate(58.775 41.391)" fill="#404d61" stroke="#404d61" stroke-width="0.5" fill-rule="evenodd"/>
      <path id="Path_26587" data-name="Path 26587" d="M-1909.138,3404.15a.6.6,0,0,1-.595-.594.594.594,0,0,1,.595-.595h4.087a.6.6,0,0,1,.595.595.6.6,0,0,1-.595.594Z" transform="translate(57.968 48.142)" fill="#404d61" stroke="#404d61" stroke-width="0.5" fill-rule="evenodd"/>
      <path id="Path_26588" data-name="Path 26588" d="M-1913.327,3393.386h18.7v-.806h-18.7v.806Zm19.292,1.189h-19.887a.6.6,0,0,1-.594-.595v-2a.6.6,0,0,1,.594-.595h19.887a.6.6,0,0,1,.594.595v2A.6.6,0,0,1-1894.035,3394.576Z" transform="translate(54.852 40.604)" fill="#404d61" stroke="#404d61" stroke-width="0.5" fill-rule="evenodd"/>
      <path id="Path_26589" data-name="Path 26589" d="M-1882.635,3392.6h16.36a.594.594,0,0,1,.595.594v29.56a.594.594,0,0,1-.595.595h-16.36a.594.594,0,0,1-.594-.595v-29.56a.594.594,0,0,1,.594-.594Zm15.766,1.189h-15.171v28.371h15.171Z" transform="translate(75.237 41.391)" fill="#404d61" stroke="#404d61" stroke-width="0.5" fill-rule="evenodd"/>
      <path id="Path_26590" data-name="Path 26590" d="M-1878.276,3393.193a.594.594,0,0,1,.595-.594.594.594,0,0,1,.594.594v29.56a.594.594,0,0,1-.594.595.594.594,0,0,1-.595-.595Z" transform="translate(78.465 41.391)" fill="#404d61" stroke="#404d61" stroke-width="0.5" fill-rule="evenodd"/>
      <path id="Path_26591" data-name="Path 26591" d="M-1878.919,3404.15a.6.6,0,0,1-.594-.594.594.594,0,0,1,.594-.595h4.088a.6.6,0,0,1,.595.595.6.6,0,0,1-.595.594Z" transform="translate(77.659 48.142)" fill="#404d61" stroke="#404d61" stroke-width="0.5" fill-rule="evenodd"/>
      <path id="Path_26592" data-name="Path 26592" d="M-1883.107,3393.386h18.7v-.806h-18.7v.806Zm19.292,1.189H-1883.7a.6.6,0,0,1-.594-.595v-2a.6.6,0,0,1,.594-.595h19.887a.6.6,0,0,1,.594.595v2A.6.6,0,0,1-1863.815,3394.576Z" transform="translate(74.542 40.604)" fill="#404d61" stroke="#404d61" stroke-width="0.5" fill-rule="evenodd"/>
      <path id="Path_26593" data-name="Path 26593" d="M-1909.958,3353.5a.6.6,0,0,1-.594-.594.594.594,0,0,1,.594-.595h54.543a.594.594,0,0,1,.594.595.6.6,0,0,1-.594.594Z" transform="translate(57.435 15.141)" fill="#404d61" stroke="#404d61" stroke-width="0.5" fill-rule="evenodd"/>
    </g>
  </g>
</svg>
