<svg xmlns="http://www.w3.org/2000/svg" xmlns:xlink="http://www.w3.org/1999/xlink" width="201" height="82" viewBox="0 0 201 82">
  <defs>
    <clipPath id="clip-icon-taiwan">
      <rect width="201" height="82"/>
    </clipPath>
  </defs>
  <g id="icon-taiwan" clip-path="url(#clip-icon-taiwan)">
    <g id="Group_17785" data-name="Group 17785" transform="translate(141.293 -2090.385)">
      <g id="Group_17512" data-name="Group 17512" transform="translate(-71.085 2122)">
        <path id="Path_26760" data-name="Path 26760" d="M-969.5-52.726c-.033-.033-.033,0,0,0l-.066-.066c0,.033-.033.033-.066.066,0-.165-.231-.066-.33-.066h0c-.066-.033-.165-.132-.165-.165h0c0-.033.033-.132.033-.165-.066-.165-.165-.066-.132-.231a.115.115,0,0,1,.033-.066c0-.033,0-.033.033-.033,0-.033,0-.066-.066-.066a.455.455,0,0,0,.1-.132c-.066,0-.1.033-.132.033s-.1.033-.132.033-.033,0-.066-.033c-.033,0-.066-.033-.1-.033h-.363v.033c-.066,0-.1-.033-.033-.066a.032.032,0,0,1,.033-.033h0c-.066,0-.165.033-.2-.033.132-.1-.132-.033-.2-.1l-.033-.033c.033,0,.033-.033.066-.033-.066,0-.1-.033-.132-.033h0v.033h-.033c.033,0,0-.033,0-.033a.121.121,0,0,1-.1.033h0c-.066-.033-.033-.033-.066,0h0c-.066-.066-.132-.033-.231-.033.033-.033,0-.066.033-.1-.033,0-.066-.033-.1-.066h0c-.033.033-.066,0-.066-.066a.032.032,0,0,1,.033-.033c-.1,0-.1-.033-.066-.066h-.033v-.033c.033-.033.066-.033.066-.066h0c-.033.033-.066.066-.1.066v.033h0c-.033-.033,0,0-.066.033v-.033h-.033c-.033,0-.033,0-.066-.033h0v-.033h-.033c-.066,0-.066-.033-.1-.066a.115.115,0,0,0,.033-.066c-.033-.033,0-.033-.066-.033h0v.033h-.033c-.132-.033-.033-.165-.132-.3-.066-.1-.2-.132-.264-.2-.066,0-.132-.066-.2-.066A.115.115,0,0,0-973.1-55c-.033,0-.033.033-.1.033-.033,0-.165-.066-.132-.066-.033,0-.033.066-.066.1a.145.145,0,0,1-.165-.033c0,.033,0,.033-.033.066a.032.032,0,0,0-.033.033c-.033.033-.1.033-.132.066s-.033.1-.066.1c-.033.033-.132.033-.132.033-.066.066-.066.132-.1.2a.513.513,0,0,1-.2.264s-.1.066-.066.033c-.033.1.132.066,0,.2l-.033-.033h0c.033.1-.066.066-.1,0a.15.15,0,0,0,0,.165,1.956,1.956,0,0,1-.627.165h-.1c0,.132-.33.033-.4.066a.032.032,0,0,1-.033-.033h0v.066a2.044,2.044,0,0,0-.627.231,3.438,3.438,0,0,0-.528.2c-.165.1-.462.2-.594.429-.033.066-.033.132-.1.165,0,0,.033.033.033,0a1.377,1.377,0,0,1-.264.4c-.165.165-.2.429-.363.594a.285.285,0,0,1-.2.1c.066.1-.165.429-.165.594v.1s.033.033,0,.033v-.033h0c0,.1-.165.2-.231.3-.132.2-.165.363-.4.462-.132.066-.3.033-.429.132h0c-.066.2-.264.231-.429.429-.066.1-.1.264-.165.363a2.219,2.219,0,0,1-.2.4c-.033.066-.066.1-.066.165h0v.033c-.165.066-.33.363-.462.495a3.72,3.72,0,0,1-.33.429h0l-.033.033h0c-.033.033-.033.066-.066.132a2.5,2.5,0,0,1-.3.3h0c0,.033,0,.165-.1.165.033.066-.066.165-.066.231-.066,0-.066.033-.1.066h0s-.1.363-.2.3h.033c-.066.033-.066.1-.132.132a.44.44,0,0,1-.165.1c-.066.033-.1.231-.165.231.066.033-.132.363-.165.4s-.033.066-.066.1h0a1.458,1.458,0,0,0-.3.264c.132.2-.132.4-.2.528a1.164,1.164,0,0,1-.165.264c-.1.1-.066.132-.132.231-.033.066-.1.1-.165.2-.033.033.033.066,0,.1-.033.066-.1.033-.132.066a.688.688,0,0,0-.132.2l-.066.1s-.033.1,0,.066c-.066.1-.2.3-.3.3h.033l-.165.165h0c.2.165,0,.561-.1.693a1.768,1.768,0,0,1-.165.363c-.033.033-.2.231,0,.231.1,0,.066.033.066,0,0,.033.033.165.066.165v.231c0,.033.033.033-.033.066a.863.863,0,0,1,.1.264c0,.165-.132.033-.2.1-.132.066-.033.231.066.264s.231-.033.165-.033a.23.23,0,0,1-.066.132h-.033v.066h0c-.033.033-.1.132-.1.1,0,0,.132-.066.132.033h.033a.257.257,0,0,0-.066.165h.033a.378.378,0,0,0,0,.2s.066-.033.066-.066c.033.066.033.132-.033.132h0c.033.033-.132.033-.165.033a1.258,1.258,0,0,1-.1.33.247.247,0,0,0-.033.165v.033c-.033.1-.1.132-.165.231v.2a.493.493,0,0,1-.1.231c-.033.1,0,.1,0,.165-.033.132-.1.264-.132.4-.033.1-.033.2-.066.3,0,.066,0,.066-.033.1l.033-.033a.33.33,0,0,0-.132.165c-.033.066-.1.2-.066.264,0,.033.066.066.132.1.033.033.066.1.1.132.066.033.165.066.231.1a.593.593,0,0,1,.231.165c.033.033.066.033.1.066a.77.77,0,0,1,.231.231c.033.033-.033.033-.033.066.033.033.066,0,.1.033,0,.033.033.033.033.066.033.1,0,.2.033.3h.033a.469.469,0,0,0,.066.2c.033.066.066.1.066.165v.066h0a.253.253,0,0,1,.066.1c-.033,0-.033.033-.066.033h0c.1-.066.132.231.2.3.033.033.066.165.1.2.033.066.066.1.033.132h0a.457.457,0,0,1,.1.132c.033.033.033.1.066.165,0,.033.033.066.033.1a.115.115,0,0,1,.033.066v.132c0,.1-.033.1-.066.165a.3.3,0,0,0-.033.165c0,.033.066.066.066.1l-.033.1c0,.033.033.033.066.066h0v.066a1.137,1.137,0,0,1,.3.4.046.046,0,0,0,0,.066c0,.033.231.1.231.1h0a.032.032,0,0,0-.033.033h0s.1-.033.066.066a2.018,2.018,0,0,0,.726.429c.132.033.2.165.33.264a2.493,2.493,0,0,0,.429.2,2.644,2.644,0,0,1,.627.429.672.672,0,0,0,.2.231c.2.165.2.33.264.561.033.132.1.132.165.231a2.265,2.265,0,0,1,.1.264c.033.165.066.3.1.462a1.193,1.193,0,0,1,.1.231c0,.033.033.066.033.1,0,.132-.066.033-.132.132-.033.033.066.132.033.2,0,.033-.066.066-.1.1l.033.066h0c-.132,0-.1.2-.033.264.066.132.165.165.165.33,0,.066-.033.165-.033.231.033.066.033,0,.066.033.033.066.033.132.132.132h.033c0-.033.033-.066.033-.1h.033v-.1s.033.033.033,0c0-.066,0-.033.066-.1h0c.132-.1.3.2.4.132.033.066.132.033.165.066.066.033.066.066.1.132,0,.033.066,0,.066,0,.033.033.033.231.165.132.066-.066-.132-.264-.165-.363a.457.457,0,0,1,0-.3c.033-.033,0-.033.066-.1.033-.033.1-.033.132-.066.066-.066.033-.066.066-.132.066-.1.165-.165.165-.231h0a.384.384,0,0,1-.066-.231c0-.1.033-.165.033-.231,0-.033.033-.033.033-.066h0a.254.254,0,0,1-.1-.066c0-.033-.033-.066-.033-.1s.033-.033.033-.066v-.429c0-.033.033-.1.033-.132s0-.165.033-.2a.358.358,0,0,0-.033-.165c0-.066-.033-.132-.033-.2v-.231a.808.808,0,0,1,.132-.4,1.377,1.377,0,0,1,.132-.33l.2-.495a3.378,3.378,0,0,0,.132-.462,1.607,1.607,0,0,1,.132-.363c.066-.066.132-.1.2-.165.066-.1.033-.264.1-.4a.42.42,0,0,1,.231-.3,2.752,2.752,0,0,1,.4-.264,3.074,3.074,0,0,0,.33-.165c.1-.1.3-.2.363-.33a.28.28,0,0,1,.1-.165h.033c.033-.033.033-.033,0-.132v-.066a1.3,1.3,0,0,0-.1-.132.235.235,0,0,1,.1-.2c.1-.066.231-.033.3-.1v-.066a1.138,1.138,0,0,0,.3-.4c.033-.066.033-.132.1-.2h0c-.033,0,.066-.033.033-.033a2.048,2.048,0,0,0,.264-.4c.033-.066.033-.1.1-.132-.033-.1.1-.33.165-.462.033-.1.033-.1.132-.165.066-.033.1,0,.1-.066.033-.066.165-.066.2-.132.033,0-.132,0-.1-.2,0-.066.066-.066.033-.165a1.432,1.432,0,0,1-.033-.165c0-.165.066-.165.1-.2a.254.254,0,0,0,.066-.1c-.165-.033.2-.627.264-.693.033-.033.033,0,.066,0,.066-.066.033-.2.066-.3,0-.066.033-.2.033-.3.033-.066.033-.132.066-.2.033-.1.1-.231.132-.33a1.047,1.047,0,0,0,.1-.3c0-.033-.033,0-.033,0,0-.1-.033-.132-.033-.2a.3.3,0,0,1,.033-.165c.033-.165.132-.264.165-.4a3.136,3.136,0,0,1,.132-.594,1.4,1.4,0,0,0,.066-.363.374.374,0,0,1,.1-.264c.132-.2.066-.462.165-.693a1.583,1.583,0,0,0,.165-.561v-.2c0-.1.033-.132.033-.231,0-.066-.033-.1.033-.165.033-.033.066-.1.132,0,.066-.066.066-.165.1-.231h0v.033c.132-.132-.066-.231-.132-.33a.47.47,0,0,1-.066-.2.278.278,0,0,1,.066-.231c.066-.1.132-.1.2-.165a.334.334,0,0,0,.132-.231c0-.2-.1-.264.033-.462.066-.066.132-.1.2-.165l.165-.165c.033-.033.1-.033.165-.1a.375.375,0,0,0,.1-.2c.033-.1.165-.132.2-.231.066-.132,0-.264.066-.429a5.481,5.481,0,0,1,.165-.594c.033-.066.1-.1.132-.132a.748.748,0,0,0,.033-.132.991.991,0,0,1,.264-.132c.1-.066.033.033-.033-.033v-.1c-.033,0-.1,0-.1-.066-.033-.2.231-.132.264-.231.033-.066,0-.165,0-.231s-.033-.132.033-.132h.033c-.033,0-.033-.033-.066-.033h0c.033,0,.033-.033.066-.033l-.033-.033c.033,0,.066-.033.1-.033h0v-.033h0a.382.382,0,0,1-.231-.165.628.628,0,0,1-.1-.264.642.642,0,0,1-.033-.264v-.2c0-.066,0-.033-.033-.066l-.1-.2c0-.066-.033-.1-.033-.165v-.2c0-.066.033-.165.033-.231.033-.066.033-.165.066-.231a.606.606,0,0,1,.231-.33.458.458,0,0,1,.132-.1h0l.1-.1c.033-.066,0-.1.066-.165,0-.033.066,0,.1,0,0-.066.033-.066.066-.1a.071.071,0,0,1,.066-.066l.033-.033a.225.225,0,0,1,.165-.1c.066-.033.132-.033.2-.066s.2-.165.3-.132C-969.534-52.693-969.534-52.693-969.5-52.726Z" transform="translate(985.393 55.035)" fill="#333"/>
      </g>
      <path id="Path_29455" data-name="Path 29455" d="M-65.138-31.86l2.295,7.875h2.61l-.18-9.63h-29.7l-.18,9.63h2.655l2.25-7.875h6.21c.09,4.635.09,9.36.09,14.085v1.98c0,4.68,0,9.315-.09,13.815l-4.545.45V0H-66.8V-1.53l-4.59-.45c-.09-4.59-.09-9.27-.09-13.86v-1.935c0-4.77,0-9.45.09-14.085Zm21.375,27.5c-1.665,1.485-2.7,2.07-3.915,2.07-2.115,0-3.375-1.26-3.375-3.96,0-3.285,1.665-5.4,4.815-6.705a21.27,21.27,0,0,1,2.475-.765Zm-9.63-18.315.72-.27Zm20.07,19.305c-.855,1.35-1.35,1.71-2.025,1.71-.855,0-1.395-.585-1.395-2.3V-16.065c0-6.525-2.565-9.27-8.955-9.27-6.975,0-10.89,2.7-11.25,6.93a2.92,2.92,0,0,0,3.1,2.3c1.71,0,3.24-1.215,3.375-4.275l.315-3.2a9.253,9.253,0,0,1,1.89-.18c3.42,0,4.5,1.4,4.5,6.075v2.745c-1.575.4-3.15.81-4.41,1.17-7.245,2.115-9.585,4.32-9.585,8.415,0,3.78,2.7,6.12,6.57,6.12,3.6,0,5.31-1.4,7.6-3.915A4.988,4.988,0,0,0-38.273.765c2.88,0,4.59-1.035,5.715-3.51ZM28.6-24.57h-9.27v1.35l4.05.45L18.607-6.75l-5.49-16.065,3.465-.405v-1.35H4.837v1.35l3.51.36L3.037-6.48-2-22.905l3.51-.315v-1.35H-11.768v1.35l2.43.27L-1.1.09h3.06L8.3-17.73c1.035,3.555,2.655,8.1,6.165,17.82h3.06l7.965-22.86,3.1-.45Zm17.46,20.2c-1.665,1.485-2.7,2.07-3.915,2.07-2.115,0-3.375-1.26-3.375-3.96,0-3.285,1.665-5.4,4.815-6.705a21.27,21.27,0,0,1,2.475-.765ZM36.428-22.68l.72-.27ZM56.5-3.375c-.855,1.35-1.35,1.71-2.025,1.71-.855,0-1.395-.585-1.395-2.3V-16.065c0-6.525-2.565-9.27-8.955-9.27-6.975,0-10.89,2.7-11.25,6.93a2.92,2.92,0,0,0,3.1,2.3c1.71,0,3.24-1.215,3.375-4.275l.315-3.2a9.253,9.253,0,0,1,1.89-.18c3.42,0,4.5,1.4,4.5,6.075v2.745c-1.575.4-3.15.81-4.41,1.17-7.245,2.115-9.585,4.32-9.585,8.415,0,3.78,2.7,6.12,6.57,6.12,3.6,0,5.31-1.4,7.6-3.915A4.988,4.988,0,0,0,51.548.765c2.88,0,4.59-1.035,5.715-3.51ZM87.458-1.62c-.09-2.61-.135-6.435-.135-9.09v-5.94c0-5.9-2.925-8.685-7.2-8.685-2.97,0-5.445,1.035-8.415,4.455l-.27-3.96-.63-.45-9.765,2.835v1.08l3.375.36c.09,2.16.135,3.645.135,6.57v3.735c0,2.52-.045,6.39-.09,9.045l-3.015.27V0h13V-1.4L71.888-1.62c-.045-2.655-.09-6.57-.09-9.09V-19.4c1.935-1.71,3.78-2.565,5.13-2.565,2.115,0,3.1,1.26,3.1,4.77v6.48c0,2.61-.045,6.435-.09,9.045l-2.835.27V0h13.05V-1.4Z" transform="translate(-41 2148)" fill="#333"/>
    </g>
  </g>
</svg>
