<svg xmlns="http://www.w3.org/2000/svg" xmlns:xlink="http://www.w3.org/1999/xlink" width="200" height="105" viewBox="0 0 200 105">
  <defs>
    <clipPath id="clip-icon-school">
      <rect width="200" height="105"/>
    </clipPath>
  </defs>
  <g id="icon-school" clip-path="url(#clip-icon-school)">
    <g id="Group_17429" data-name="Group 17429" transform="translate(-307 -1188)">
      <g id="Group_17428" data-name="Group 17428" transform="translate(2)">
        <g id="Group_17464" data-name="Group 17464">
          <path id="Path_26495" data-name="Path 26495" d="M-1932.162,3363.875h92.641l-46.32-23.839Z" transform="translate(2288.877 -2145.476)" fill="#ffe4a4" fill-rule="evenodd"/>
          <rect id="Rectangle_5622" data-name="Rectangle 5622" width="111.107" height="3.358" transform="translate(347.932 1286.213)" fill="#ffe4a4"/>
          <rect id="Rectangle_5625" data-name="Rectangle 5625" width="97.02" height="3.358" transform="translate(354.975 1218.4)" fill="#ffe4a4"/>
          <path id="Path_26505" data-name="Path 26505" d="M-1924.615,3365.6h7.565v6.052h-2.386l1.049,45.634h1.337v6.052h-7.565v-6.052h1.637v-45.634h-1.637Z" transform="translate(2290.349 -2140.488)" fill="#ffe4a4" fill-rule="evenodd"/>
          <path id="Path_26509" data-name="Path 26509" d="M-1864.177,3365.6h7.566v6.052H-1859l1.05,45.634h1.337v6.052h-7.566v-6.052h1.637v-45.634h-1.637Z" transform="translate(2302.139 -2140.488)" fill="#ffe4a4" fill-rule="evenodd"/>
          <path id="Path_26513" data-name="Path 26513" d="M-1894.4,3365.6h7.566v6.052h-2.387l1.05,45.634h1.337v6.052h-7.566v-6.052h1.637v-45.634h-1.637Z" transform="translate(2296.244 -2140.488)" fill="#ffe4a4" fill-rule="evenodd"/>
        </g>
        <path id="Path_26496" data-name="Path 26496" d="M-1852.794,3365.674a.43.43,0,0,1,.43-.43.43.43,0,0,1,.43.43v57.739a.43.43,0,0,1-.43.43.43.43,0,0,1-.43-.43Z" transform="translate(2304.359 -2140.558)" fill="#404d61" stroke="#404d61" stroke-width="0.5" fill-rule="evenodd"/>
        <path id="Path_26497" data-name="Path 26497" d="M-1989.845,3420.038c-.117,0-.211-.192-.211-.43s.094-.43.211-.43h113.354c.116,0,.211.194.211.43s-.095.43-.211.43Z" transform="translate(2336.654 -2130.038)" fill="#404d61" stroke="#404d61" stroke-width="0.5" fill-rule="evenodd"/>
        <path id="Path_26499" data-name="Path 26499" d="M-1914.269,3360.485a.431.431,0,0,1-.43-.43.43.43,0,0,1,.43-.43h5.769a.43.43,0,0,1,.43.43.431.431,0,0,1-.43.43Zm7.679,0h69.632v5.856h-96.159v-5.856h13.809a.431.431,0,0,0,.43-.43.43.43,0,0,0-.43-.43h-14.241a.431.431,0,0,0-.43.43v6.717a.431.431,0,0,0,.43.43h97.021a.43.43,0,0,0,.43-.43v-6.717a.43.43,0,0,0-.43-.43h-70.062a.43.43,0,0,0-.43.43A.431.431,0,0,0-1906.59,3360.485Z" transform="translate(2288.522 -2141.654)" fill="#404d61" stroke="#404d61" stroke-width="0.5" fill-rule="evenodd"/>
        <path id="Path_26500" data-name="Path 26500" d="M-1939.051,3416.368h110.175a.43.43,0,0,1,.43.43v3.357a.43.43,0,0,1-.43.43h-110.175a.43.43,0,0,1-.43-.43V3416.8a.43.43,0,0,1,.43-.43Zm109.745.859h-109.314v2.5h109.314Z" transform="translate(2287.449 -2130.586)" fill="#404d61" stroke="#3d4a5d" stroke-width="0.5" fill-rule="evenodd"/>
        <path id="Path_26501" data-name="Path 26501" d="M-1838.139,3365.049a.43.43,0,0,1-.429-.429.428.428,0,0,1,.429-.428h6.26l-52.581-27.06-52.58,27.06h6.259a.428.428,0,0,1,.429.428.43.43,0,0,1-.429.429h-8.007a.427.427,0,0,1-.4-.232.428.428,0,0,1,.185-.577l54.35-27.972h0a.43.43,0,0,1,.393,0l54.349,27.972h0a.43.43,0,0,1,.232.381.427.427,0,0,1-.428.428Z" transform="translate(2287.496 -2146.22)" fill="#404d61" stroke="#404d61" stroke-width="0.5" fill-rule="evenodd"/>
        <path id="Path_26502" data-name="Path 26502" d="M-1902.353,3349.859a.43.43,0,0,1-.43-.43.43.43,0,0,1,.43-.43h20.9a.43.43,0,0,1,.43.43.43.43,0,0,1-.43.43Zm5.941-4.946a.43.43,0,0,1-.43-.43.431.431,0,0,1,.43-.43h9.017a.431.431,0,0,1,.43.43.43.43,0,0,1-.43.43Z" transform="translate(2294.608 -2144.692)" fill="#404d61" fill-rule="evenodd"/>
        <path id="Path_26506" data-name="Path 26506" d="M-1928.136,3408.493h11.858a.431.431,0,0,1,.43.43v6.053a.431.431,0,0,1-.43.43h-11.858a.431.431,0,0,1-.43-.43v-6.053a.431.431,0,0,1,.43-.43Zm11.427.86h-11v5.193h11Z" transform="translate(2289.578 -2132.122)" fill="#404d61" stroke="#3d4a5d" stroke-width="0.5" fill-rule="evenodd"/>
        <path id="Path_26507" data-name="Path 26507" d="M-1928.136,3365.244h11.858a.431.431,0,0,1,.43.43v6.052a.431.431,0,0,1-.43.43h-11.858a.431.431,0,0,1-.43-.43v-6.052a.431.431,0,0,1,.43-.43Zm11.427.861h-11v5.191h11Z" transform="translate(2289.578 -2140.558)" fill="#404d61" stroke="#404d61" stroke-width="0.5" fill-rule="evenodd"/>
        <path id="Path_26508" data-name="Path 26508" d="M-1926.059,3370.308h7.194a.431.431,0,0,1,.43.43v.026l1.048,45.6a.429.429,0,0,1-.419.437h-9.3a.43.43,0,0,1-.43-.43l0-.046,1.048-45.6a.429.429,0,0,1,.428-.419v0Zm6.775.86h-6.355l-1.03,44.773h8.415Z" transform="translate(2289.779 -2139.57)" fill="#404d61" stroke="#404d61" stroke-width="0.5" fill-rule="evenodd"/>
        <path id="Path_26510" data-name="Path 26510" d="M-1867.7,3408.493h11.856a.431.431,0,0,1,.43.43v6.053a.43.43,0,0,1-.43.43H-1867.7a.43.43,0,0,1-.43-.43v-6.053a.431.431,0,0,1,.43-.43Zm11.426.86h-11v5.193h11Z" transform="translate(2301.368 -2132.122)" fill="#404d61" stroke="#404d61" stroke-width="0.5" fill-rule="evenodd"/>
        <path id="Path_26511" data-name="Path 26511" d="M-1867.7,3365.244h11.856a.43.43,0,0,1,.43.43v6.052a.43.43,0,0,1-.43.43H-1867.7a.43.43,0,0,1-.43-.43v-6.052a.43.43,0,0,1,.43-.43Zm11.426.861h-11v5.191h11Z" transform="translate(2301.368 -2140.558)" fill="#404d61" stroke="#404d61" stroke-width="0.5" fill-rule="evenodd"/>
        <path id="Path_26512" data-name="Path 26512" d="M-1865.621,3370.308h7.193a.43.43,0,0,1,.43.43v.026l1.049,45.6a.429.429,0,0,1-.421.437h-9.3a.43.43,0,0,1-.43-.43l0-.046,1.049-45.6a.427.427,0,0,1,.428-.419v0Zm6.775.86h-6.356l-1.029,44.773h8.415Z" transform="translate(2301.569 -2139.57)" fill="#404d61" stroke="#404d61" stroke-width="0.5" fill-rule="evenodd"/>
        <path id="Path_26514" data-name="Path 26514" d="M-1897.916,3408.493h11.856a.431.431,0,0,1,.43.43v6.053a.43.43,0,0,1-.43.43h-11.856a.43.43,0,0,1-.43-.43v-6.053a.431.431,0,0,1,.43-.43Zm11.426.86h-11v5.193h11Z" transform="translate(2295.473 -2132.122)" fill="#404d61" stroke="#3d4a5d" stroke-width="0.5" fill-rule="evenodd"/>
        <path id="Path_26515" data-name="Path 26515" d="M-1897.916,3365.244h11.856a.43.43,0,0,1,.43.43v6.052a.43.43,0,0,1-.43.43h-11.856a.43.43,0,0,1-.43-.43v-6.052a.43.43,0,0,1,.43-.43Zm11.426.861h-11v5.191h11Z" transform="translate(2295.473 -2140.558)" fill="#404d61" stroke="#404d61" stroke-width="0.5" fill-rule="evenodd"/>
        <path id="Path_26516" data-name="Path 26516" d="M-1895.84,3370.308h7.193a.43.43,0,0,1,.43.43v.026l1.049,45.6a.43.43,0,0,1-.421.437h-9.3a.43.43,0,0,1-.43-.43l0-.046,1.048-45.6a.429.429,0,0,1,.429-.419v0Zm6.775.86h-6.356l-1.029,44.773h8.415Z" transform="translate(2295.674 -2139.57)" fill="#404d61" stroke="#404d61" stroke-width="0.5" fill-rule="evenodd"/>
        <path id="Path_26541" data-name="Path 26541" d="M-1933.978,3365.674a.431.431,0,0,1,.43-.43.431.431,0,0,1,.431.43v57.739a.431.431,0,0,1-.431.43.431.431,0,0,1-.43-.43Z" transform="translate(2288.522 -2140.558)" fill="#404d61" stroke="#404d61" stroke-width="0.5" fill-rule="evenodd"/>
        <path id="Path_26562" data-name="Path 26562" d="M-1933.548,3411.358a.431.431,0,0,1-.43-.43.431.431,0,0,1,.43-.43h6.468a.43.43,0,0,1,.43.43.43.43,0,0,1-.43.43Zm18.324,0a.431.431,0,0,1-.43-.43.431.431,0,0,1,.43-.43h24.259a.43.43,0,0,1,.43.43.43.43,0,0,1-.43.43Zm36.115,0a.43.43,0,0,1-.43-.43.43.43,0,0,1,.43-.43h24.258a.43.43,0,0,1,.43.43.43.43,0,0,1-.43.43Zm36.114,0a.43.43,0,0,1-.43-.43.43.43,0,0,1,.43-.43h6.468a.43.43,0,0,1,.43.43.43.43,0,0,1-.43.43Z" transform="translate(2288.522 -2131.731)" fill="#404d61" stroke="#404d61" stroke-width="0.5" fill-rule="evenodd"/>
        <path id="Path_26563" data-name="Path 26563" d="M-1936.161,3413.558h103.267a.431.431,0,0,1,.43.431v3.358a.43.43,0,0,1-.43.429h-103.267a.429.429,0,0,1-.43-.429v-3.358a.43.43,0,0,1,.43-.431Zm102.837.861h-102.407v2.5h102.407Z" transform="translate(2288.013 -2131.133)" fill="#404d61" stroke="#3d4a5d" stroke-width="0.5" fill-rule="evenodd"/>
        <path id="Path_26569" data-name="Path 26569" d="M-1931.895,3364.327a.429.429,0,0,1-.579-.186.429.429,0,0,1,.185-.577l46.321-23.839a.427.427,0,0,1,.393,0h0l46.32,23.839a.429.429,0,0,1,.185.577.429.429,0,0,1-.578.186l-46.124-23.738Z" transform="translate(2288.807 -2145.545)" fill="#404d61" stroke="#404d61" stroke-width="0.5" fill-rule="evenodd"/>
        <path id="Path_26593" data-name="Path 26593" d="M-1910.122,3353.174a.431.431,0,0,1-.43-.43.43.43,0,0,1,.43-.431h39.467a.43.43,0,0,1,.43.431.431.431,0,0,1-.43.43Z" transform="translate(2293.092 -2143.08)" fill="#404d61" fill-rule="evenodd"/>
      </g>
    </g>
  </g>
</svg>
