<svg xmlns="http://www.w3.org/2000/svg" xmlns:xlink="http://www.w3.org/1999/xlink" width="338" height="150" viewBox="0 0 338 150">
  <defs>
    <clipPath id="clip-icon-education--not-word">
      <rect width="338" height="150"/>
    </clipPath>
  </defs>
  <g id="icon-education--not-word" clip-path="url(#clip-icon-education--not-word)">
    <g id="Group_17783" data-name="Group 17783" transform="translate(-649.032 -628)">
      <path id="Path_26630" data-name="Path 26630" d="M-1455.926,3349.622c1.832-4.121,9-9.908,17.044-10.052s17.145.781,21,2.874,10.346,6.009,10.778,17.676c.142,3.832.1,14.581,0,20.833a21.181,21.181,0,0,1-3.449,12.076c.344,2.968,2.012,1.581,2.012,1.581l4.742-8.479V3354.8l-3.305-10.06-10.778-8.191-11.927-1.437h-12.215l-8.191,5.03-4.21,3.458S-1457.757,3353.743-1455.926,3349.622Z" transform="translate(2332.589 -2688.25)" fill="#ffe4a4"/>
      <path id="Path_26629" data-name="Path 26629" d="M-1439.468,3392.089v-40.8l4.546-.972,3.643-4.371,5.1,4.371,4.857,2.429,3.157,4.857-1.214,12.386-4.372,15.3-11.171,6.8Z" transform="translate(2341.092 -2682.835)" fill="#ffe4a4"/>
      <g id="Group_17390" data-name="Group 17390" transform="translate(846.076 645.943)">
        <rect id="Rectangle_5629" data-name="Rectangle 5629" width="2.096" height="14.673" transform="translate(20.961 117.383)" fill="#404d61" stroke="#404d61" stroke-width="1"/>
        <rect id="Rectangle_5630" data-name="Rectangle 5630" width="2.096" height="14.673" transform="translate(88.038 117.383)" fill="#404d61" stroke="#404d61" stroke-width="1"/>
        <path id="Path_26622" data-name="Path 26622" d="M-1412.836,3396.554c1.809-1.593,5.932-6.184,5.932-14.891v-25.154a22.033,22.033,0,0,0-22.01-22.009h-12.577a22.033,22.033,0,0,0-22.01,22.009v25.154c0,8.707,4.123,13.3,5.932,14.891l1.174-1.761c-1.605-1.49-5.01-5.544-5.01-13.129v-25.154a19.937,19.937,0,0,1,19.913-19.914h12.577A19.937,19.937,0,0,1-1409,3356.509v25.154c0,7.55-3.406,11.625-5.012,13.125l.644.966Z" transform="translate(1490.75 -3334.5)" fill="#404d61" stroke="#404d61" stroke-width="1"/>
        <path id="Path_26624" data-name="Path 26624" d="M-1416.481,3356.125a9.491,9.491,0,0,0-8.615-9.4l-.381-.034-3.886-3.888a1.052,1.052,0,0,0-1.484,0l-3.884,3.886h-16.335a9.444,9.444,0,0,0-9.433,9.432v4.193c0,11.983,2.708,20.556,8.047,25.476l.337.312v7.392l2.092.521c0-.054,0-.109,0-.163v-6.1l1.522.768a22,22,0,0,0,10.007,2.184,22.005,22.005,0,0,0,10.007-2.184l1.522-.768v6.1c0,.054,0,.109,0,.163l2.092-.521v-7.392l.338-.312c5.339-4.92,8.047-13.493,8.047-25.476Zm-2.1,4.193c0,19.041-6.513,28.3-19.913,28.3s-19.914-9.256-19.914-28.3v-4.193a7.344,7.344,0,0,1,7.337-7.336h16.769a1.049,1.049,0,0,0,.742-.306l3.45-3.453,3.45,3.453a1.05,1.05,0,0,0,.742.306,7.344,7.344,0,0,1,7.336,7.336Z" transform="translate(1494.038 -3325.731)" fill="#404d61" stroke="#404d61" stroke-width="1"/>
        <path id="Path_26627" data-name="Path 26627" d="M-1420.952,3380.512l7.642,7.644a1.067,1.067,0,0,0,1.249.176l18.383-10.216,3.7,1.851c8.481,2.838,22.479,9.671,22.479,24.216v26.2h2.1v-26.2c0-11.541-8.615-21.055-23.634-26.1l-.136-.057-3.854-1.927-.069-.025-10.43-8.344a1.037,1.037,0,0,0-.906-.2l-16.517,4.129-16.515-4.127a1.077,1.077,0,0,0-.912.2l-10.493,8.367-3.857,1.927c-15.155,5.1-23.771,14.616-23.771,26.157v26.2h2.1v-26.2c0-14.545,14-21.378,22.341-24.158l3.836-1.91,18.381,10.214a1.044,1.044,0,0,0,1.249-.174Zm-8.567,5.6-16.807-9.338,8.854-7.085,16.266,4.067a1.026,1.026,0,0,0,.512,0l16.262-4.067,8.854,7.085-16.807,9.338-7.825-7.827a1.076,1.076,0,0,0-1.484,0Z" transform="translate(1476.5 -3298.328)" fill="#404d61" stroke="#404d61" stroke-width="1"/>
      </g>
      <path id="Path_26628" data-name="Path 26628" d="M-3953.178-3126.164v40.912l12.958-3.549,6.165-9.341,5.23-16.252,1.308-2.989v-16.253l-4.483,3.549-13.077,3.923Z" transform="translate(4717.895 3793.682)" fill="#ffe4a4"/>
      <g id="Group_17391" data-name="Group 17391" transform="translate(701.624 628)">
        <rect id="Rectangle_5631" data-name="Rectangle 5631" width="2.381" height="16.666" transform="translate(23.809 133.333)" fill="#404d61" stroke="#404d61" stroke-width="0.5"/>
        <rect id="Rectangle_5632" data-name="Rectangle 5632" width="2.381" height="16.666" transform="translate(99.998 133.333)" fill="#404d61" stroke="#404d61" stroke-width="0.5"/>
        <rect id="Rectangle_5633" data-name="Rectangle 5633" width="2.381" height="30.952" transform="translate(61.904 119.048)" fill="#404d61" stroke="#404d61" stroke-width="0.5"/>
        <path id="Path_26625" data-name="Path 26625" d="M-1347.406,3417.039l8.681,8.684a1.218,1.218,0,0,0,1.419.2l18.624-10.35,6.457,3.229c15.016,5.017,25.533,9.541,25.533,22.745v25h2.381v-25c0-15.933-14.262-20.688-26.842-24.882l-.157-.067-4.407-2.205.374-1a1.184,1.184,0,0,0,.076-.314,1.2,1.2,0,0,0-.443-1.033l-11.9-9.521a1.183,1.183,0,0,0-1.029-.227l-3.286.822v-11.59l.355-.347c6.421-6.3,8.938-15.746,9.155-22.476l.014-.472,2.381-2.38V3347.5h-2.662c-1.85,3.921-12.606,7.143-24.718,7.143s-22.868-3.221-24.719-7.143h-2.662v18.35l2.381,2.38.014.472c.217,6.73,2.733,16.171,9.155,22.476l.355.347v11.59l-3.283-.819a1.226,1.226,0,0,0-1.036.227l-11.9,9.521a1.2,1.2,0,0,0-.441,1.028,1.187,1.187,0,0,0,.076.317l.374,1-4.407,2.205c-12.738,4.261-27,9.016-27,24.949v25h2.381v-25c0-13.2,10.516-17.728,25.375-22.678l6.615-3.3,18.621,10.347a1.183,1.183,0,0,0,1.419-.2Zm-22.618-49.3v-.493l-2.381-2.38v-13.8l1.814,1.114c10.4,6.383,35.971,6.383,46.371,0l1.814-1.114v13.8l-2.381,2.38v.493c0,10.586-6.14,27.381-22.618,27.381S-1370.025,3378.323-1370.025,3367.737Zm35.713,25.883v10.09l-13.095,3.274-13.095-3.274v-10.09l1.781,1.017a22.513,22.513,0,0,0,11.314,2.862,22.516,22.516,0,0,0,11.314-2.862Zm-22.825,29.783-17.414-9.676-.812-1.624,9.192-7.354,18.476,4.62a1.217,1.217,0,0,0,.581,0l18.471-4.62,9.19,7.352-.809,1.624-17.414,9.678-8.888-8.89a1.222,1.222,0,0,0-1.686,0Z" transform="translate(1410.5 -3316.545)" fill="#404d61" stroke="#404d61" stroke-width="1"/>
        <path id="Path_26626" data-name="Path 26626" d="M-1314.407,3374.977v-25a1.19,1.19,0,0,0-.814-1.131l-42.856-14.285a1.161,1.161,0,0,0-.752,0l-42.856,14.285a1.193,1.193,0,0,0-.814,1.131,1.2,1.2,0,0,0,.814,1.134l42.856,14.283a1.239,1.239,0,0,0,.764,0l41.278-13.761v23.347Zm-44.047-11.969-39.092-13.031,39.092-13.03,39.092,13.03Z" transform="translate(1421.548 -3334.499)" fill="#404d61" stroke="#404d61" stroke-width="1"/>
        <rect id="Rectangle_5634" data-name="Rectangle 5634" width="2.381" height="2.381" transform="translate(104.76 47.621)" fill="#404d61" stroke="#404d61" stroke-width="1"/>
        <rect id="Rectangle_5635" data-name="Rectangle 5635" width="2.381" height="2.381" transform="translate(61.904 109.524)" fill="#404d61" stroke="#404d61" stroke-width="0.5"/>
      </g>
      <path id="Path_26631" data-name="Path 26631" d="M-1979.3,3339.243a3.026,3.026,0,0,0,3.021-3.019,3.026,3.026,0,0,0-3.021-3.021,3.027,3.027,0,0,0-3.021,3.021A3.026,3.026,0,0,0-1979.3,3339.243Z" transform="translate(2636.356 -2672.883)" fill="#1e86d5" fill-rule="evenodd"/>
      <path id="Path_26634" data-name="Path 26634" d="M-1981.115,3335.619a1.211,1.211,0,0,0,1.208-1.208,1.211,1.211,0,0,0-1.208-1.209,1.211,1.211,0,0,0-1.208,1.209A1.211,1.211,0,0,0-1981.115,3335.619Z" transform="translate(2843.98 -2687.26)" fill="#1e86d5" fill-rule="evenodd"/>
      <path id="Path_26632" data-name="Path 26632" d="M-1874.184,3331.44a10.447,10.447,0,0,1,7.415-7.415,10.451,10.451,0,0,1-7.415-7.416,10.452,10.452,0,0,1-7.416,7.416A10.447,10.447,0,0,1-1874.184,3331.44Z" transform="translate(2849.788 -2652.603)" fill="#1e86d5" fill-rule="evenodd"/>
      <path id="Path_26633" data-name="Path 26633" d="M-1816.525,3339.548a7.38,7.38,0,0,1,5.239-5.237,7.38,7.38,0,0,1-5.239-5.238,7.377,7.377,0,0,1-5.237,5.238A7.376,7.376,0,0,1-1816.525,3339.548Z" transform="translate(2517.472 -2617.074)" fill="#1e86d5" fill-rule="evenodd"/>
    </g>
  </g>
</svg>
