<svg xmlns="http://www.w3.org/2000/svg" xmlns:xlink="http://www.w3.org/1999/xlink" width="40" height="60" viewBox="0 0 40 60">
  <defs>
    <clipPath id="clip-icon-achievement">
      <rect width="40" height="60"/>
    </clipPath>
  </defs>
  <g id="icon-achievement" clip-path="url(#clip-icon-achievement)">
    <g id="Group_17761" data-name="Group 17761" transform="translate(-901 -891)">
      <path id="Path_26643" data-name="Path 26643" d="M318.986,5657.713v11.832l2.682,8.22h9.092l-7.6,5.729,3.114,8.469-7.29-4.982V5702.3l18.748,12.455v-57.913Z" transform="translate(602 -4765)" fill="#ffe4a4"/>
      <path id="Path_26641" data-name="Path 26641" d="M418.586,2231.467a.883.883,0,0,0-.882-.882H379.5a.882.882,0,0,0-.882.882V2289.7a.882.882,0,0,0,1.387.724l18.6-12.925,18.6,12.927a.915.915,0,0,0,.915.055.88.88,0,0,0,.471-.781Zm-1.764,56.548L399.1,2275.7a.9.9,0,0,0-1.007,0l-17.718,12.313v-55.666h36.444Z" transform="translate(522.386 -1339.585)" fill="#404d61"/>
      <path id="Path_26642" data-name="Path 26642" d="M412.171,2254.134a.882.882,0,0,0-.84-.609H403l-2.576-7.925a.882.882,0,0,0-1.678,0l-2.575,7.925h-8.334a.883.883,0,0,0-.519,1.6l6.743,4.9-2.576,7.927a.882.882,0,0,0,1.357.985l6.743-4.9,6.743,4.9a.893.893,0,0,0,1.036,0,.878.878,0,0,0,.321-.985l-2.575-7.927,6.742-4.9A.882.882,0,0,0,412.171,2254.134Zm-8.619,4.835a.878.878,0,0,0-.32.985l1.934,5.954-5.065-3.679a.9.9,0,0,0-1.036,0L394,2265.908l1.934-5.953a.879.879,0,0,0-.32-.986l-5.064-3.68h6.26a.88.88,0,0,0,.839-.609l1.934-5.954,1.935,5.954a.879.879,0,0,0,.839.609h6.26Z" transform="translate(521.403 -1341.284)" fill="#404d61"/>
    </g>
  </g>
</svg>
