<svg xmlns="http://www.w3.org/2000/svg" xmlns:xlink="http://www.w3.org/1999/xlink" width="16" height="20" viewBox="0 0 16 20">
  <defs>
    <clipPath id="clip-icon-pdf">
      <rect width="16" height="20"/>
    </clipPath>
  </defs>
  <g id="icon-pdf" clip-path="url(#clip-icon-pdf)">
    <g id="Group_18021" data-name="Group 18021">
      <path id="Path_23420" data-name="Path 23420" d="M1629.356,456.548a2.479,2.479,0,0,1-.987.024,4.714,4.714,0,0,1-1.247-.371,3.708,3.708,0,0,1,1.8.1,1.968,1.968,0,0,1,.435.248m-4.114-.675-.089.024c-.2.054-.391.106-.578.153l-.251.064c-.5.128-1.021.258-1.53.413.194-.466.374-.937.55-1.4.13-.341.263-.69.4-1.034q.1.173.219.346a6.733,6.733,0,0,0,1.277,1.432m-1.283-5.257a4.338,4.338,0,0,1-.274,1.659,2.653,2.653,0,0,1-.048-1.966,1.124,1.124,0,0,1,.169-.272,1.275,1.275,0,0,1,.153.579m-2.634,7.287c-.126.225-.255.436-.387.636-.319.479-.84.993-1.108.993a.132.132,0,0,1-.1-.053.1.1,0,0,1-.033-.085,1.575,1.575,0,0,1,.582-.781,5.73,5.73,0,0,1,1.051-.709m8.884-1.33c-.041-.587-1.031-.964-1.041-.967a3.757,3.757,0,0,0-1.271-.2,7.629,7.629,0,0,0-1.752.236,6.09,6.09,0,0,1-1.564-1.6c-.178-.27-.337-.54-.477-.8a5.941,5.941,0,0,0,.59-2.66c-.045-.783-.4-1.309-.88-1.309-.33,0-.614.244-.845.726a3.771,3.771,0,0,0,.322,3.268c-.225.528-.435,1.076-.637,1.606-.252.659-.512,1.34-.8,1.987a7.112,7.112,0,0,0-2.058,1.2,2.121,2.121,0,0,0-.838,1.3.832.832,0,0,0,.235.629.868.868,0,0,0,.64.283c.8,0,1.576-1.1,1.722-1.322a11.972,11.972,0,0,0,.842-1.51c.682-.246,1.408-.429,2.112-.607l.252-.064c.189-.048.386-.1.588-.156s.434-.117.657-.174a5.822,5.822,0,0,0,2.258.868,2.719,2.719,0,0,0,1.59-.161.583.583,0,0,0,.357-.568m1.555,5.048a1.085,1.085,0,0,1-1.141,1.144h-12.247a1.086,1.086,0,0,1-1.14-1.144V445.379a1.085,1.085,0,0,1,1.14-1.144h8.274l0,0v3.223a1.806,1.806,0,0,0,1.875,1.871h3.208l.028.028ZM1631,448.6h-2.474a1.081,1.081,0,0,1-1.139-1.137v-2.486Zm1.5,13.023V449.058l-5.11-5.122v-.024h-.024l-.41-.412h-8.58a1.81,1.81,0,0,0-1.876,1.879v16.243a1.81,1.81,0,0,0,1.876,1.878h12.249a1.81,1.81,0,0,0,1.875-1.879" transform="translate(-1616.5 -443.5)" fill="#333"/>
    </g>
  </g>
</svg>
