<svg xmlns="http://www.w3.org/2000/svg" xmlns:xlink="http://www.w3.org/1999/xlink" width="200" height="105" viewBox="0 0 200 105">
  <defs>
    <clipPath id="clip-icon-student">
      <rect width="200" height="105"/>
    </clipPath>
  </defs>
  <g id="icon-student" clip-path="url(#clip-icon-student)">
    <g id="Group_17392" data-name="Group 17392" transform="translate(-937.818 -1194)">
      <g id="Group_17465" data-name="Group 17465">
        <path id="Path_26630" data-name="Path 26630" d="M-1456.109,3344.787c1.221-2.747,6-6.605,11.363-6.7s11.43.521,14,1.916,6.9,4.006,7.185,11.784c.094,2.555.069,9.72,0,13.888a14.121,14.121,0,0,1-2.3,8.051c.229,1.979,1.341,1.054,1.341,1.054l3.161-5.652v-20.885l-2.2-6.706-7.185-5.461-7.952-.958h-8.143l-5.461,3.353-2.807,2.306S-1457.33,3347.535-1456.109,3344.787Z" transform="translate(2522.562 -2126.539)" fill="#ffe4a4"/>
        <path id="Path_26629" data-name="Path 26629" d="M-1439.468,3376.708v-27.2l3.031-.648,2.428-2.914,3.4,2.914,3.238,1.619,2.1,3.238-.81,8.257-2.914,10.2-7.448,4.533Z" transform="translate(2522.562 -2126.539)" fill="#ffe4a4"/>
        <path id="Path_26628" data-name="Path 26628" d="M-3953.178-3128.655v27.275l8.639-2.366,4.11-6.227,3.487-10.835.872-1.993v-10.835l-2.989,2.366-8.718,2.615Z" transform="translate(4945 4351)" fill="#ffe4a4"/>
      </g>
      <g id="Group_17390" data-name="Group 17390">
        <rect id="Rectangle_5629" data-name="Rectangle 5629" width="1.397" height="9.782" transform="translate(1060.036 1286.218)" fill="#404d61" stroke="#404d61" stroke-width="1"/>
        <rect id="Rectangle_5630" data-name="Rectangle 5630" width="1.397" height="9.782" transform="translate(1104.754 1286.218)" fill="#404d61" stroke="#404d61" stroke-width="1"/>
        <path id="Path_26622" data-name="Path 26622" d="M-1429.724,3375.869c1.206-1.062,3.955-4.122,3.955-9.927v-16.769a14.689,14.689,0,0,0-14.673-14.673h-8.385a14.689,14.689,0,0,0-14.673,14.673v16.769c0,5.8,2.749,8.865,3.955,9.927l.782-1.174c-1.07-.993-3.34-3.7-3.34-8.753v-16.769a13.291,13.291,0,0,1,13.276-13.276h8.385a13.291,13.291,0,0,1,13.275,13.276v16.769c0,5.033-2.271,7.75-3.341,8.75l.429.644Z" transform="translate(2527.728 -2126.538)" fill="#404d61" stroke="#404d61" stroke-width="1"/>
        <path id="Path_26624" data-name="Path 26624" d="M-1431.154,3351.583a6.327,6.327,0,0,0-5.743-6.265l-.254-.022-2.591-2.592a.7.7,0,0,0-.989,0l-2.589,2.591h-10.89a6.3,6.3,0,0,0-6.288,6.288v2.8c0,7.989,1.805,13.7,5.365,16.984l.225.208v4.928l1.395.347c0-.036,0-.073,0-.109v-4.064l1.015.512a14.669,14.669,0,0,0,6.671,1.456,14.669,14.669,0,0,0,6.671-1.456l1.015-.512v4.064c0,.036,0,.073,0,.109l1.395-.347v-4.928l.225-.208c3.559-3.28,5.365-9,5.365-16.984Zm-1.4,2.8c0,12.694-4.342,18.865-13.276,18.865s-13.276-6.171-13.276-18.865v-2.8a4.9,4.9,0,0,1,4.891-4.891h11.179a.7.7,0,0,0,.495-.2l2.3-2.3,2.3,2.3a.7.7,0,0,0,.495.2,4.9,4.9,0,0,1,4.891,4.891Z" transform="translate(2528.921 -2123.359)" fill="#404d61" stroke="#404d61" stroke-width="1"/>
        <path id="Path_26627" data-name="Path 26627" d="M-1439.468,3376.174l5.095,5.1a.712.712,0,0,0,.833.117l12.255-6.811,2.465,1.234c5.654,1.892,14.986,6.448,14.986,16.144v17.468h1.4v-17.468c0-7.694-5.743-14.037-15.756-17.4l-.091-.038-2.57-1.284-.046-.017-6.954-5.563a.691.691,0,0,0-.6-.133l-11.012,2.753-11.01-2.752a.719.719,0,0,0-.608.133l-7,5.578-2.571,1.284c-10.1,3.4-15.847,9.744-15.847,17.438v17.468h1.4v-17.468c0-9.7,9.332-14.252,14.894-16.105l2.557-1.273,12.254,6.81a.7.7,0,0,0,.833-.116Zm-5.711,3.735-11.2-6.226,5.9-4.724,10.844,2.711a.681.681,0,0,0,.341,0l10.841-2.711,5.9,4.724-11.2,6.226-5.217-5.218a.717.717,0,0,0-.989,0Z" transform="translate(2522.562 -2113.423)" fill="#404d61" stroke="#404d61" stroke-width="1"/>
      </g>
      <g id="Group_17391" data-name="Group 17391">
        <rect id="Rectangle_5631" data-name="Rectangle 5631" width="1.587" height="11.111" transform="translate(965.633 1284.889)" fill="#404d61" stroke="#404d61" stroke-width="1"/>
        <rect id="Rectangle_5632" data-name="Rectangle 5632" width="1.587" height="11.111" transform="translate(1016.425 1284.889)" fill="#404d61" stroke="#404d61" stroke-width="1"/>
        <rect id="Rectangle_5633" data-name="Rectangle 5633" width="1.587" height="20.635" transform="translate(991.029 1275.365)" fill="#404d61" stroke="#404d61" stroke-width="1"/>
        <path id="Path_26625" data-name="Path 26625" d="M-1368.437,3393.859l5.787,5.789a.812.812,0,0,0,.946.133l12.416-6.9,4.3,2.152c10.011,3.344,17.022,6.36,17.022,15.163v16.667h1.587V3410.2c0-10.622-9.508-13.792-17.9-16.588l-.1-.044-2.938-1.47.249-.668a.782.782,0,0,0,.051-.209.8.8,0,0,0-.3-.689l-7.936-6.348a.788.788,0,0,0-.686-.151l-2.19.548v-7.727l.237-.231c4.281-4.2,5.958-10.5,6.1-14.984l.01-.314,1.587-1.587V3347.5h-1.775c-1.233,2.614-8.4,4.762-16.479,4.762s-15.246-2.147-16.479-4.762h-1.774v12.233l1.587,1.587.01.314c.145,4.487,1.822,10.781,6.1,14.984l.237.231v7.727l-2.189-.546a.818.818,0,0,0-.69.151l-7.935,6.347a.8.8,0,0,0-.294.686.788.788,0,0,0,.051.211l.249.668-2.938,1.47c-8.492,2.841-18,6.011-18,16.633v16.667h1.587V3410.2c0-8.8,7.011-11.819,16.917-15.119l4.41-2.2,12.414,6.9a.789.789,0,0,0,.946-.131Zm-15.079-32.868v-.329l-1.587-1.587v-9.2l1.209.743c6.933,4.255,23.98,4.255,30.914,0l1.209-.743v9.2l-1.587,1.587v.329c0,7.057-4.094,18.254-15.079,18.254S-1383.516,3368.049-1383.516,3360.992Zm23.809,17.255v6.727l-8.73,2.183-8.73-2.183v-6.727l1.188.678a15.009,15.009,0,0,0,7.542,1.908,15.01,15.01,0,0,0,7.543-1.908Zm-15.217,19.855-11.609-6.451-.541-1.083,6.128-4.9,12.317,3.08a.811.811,0,0,0,.387,0l12.314-3.08,6.127,4.9-.54,1.083-11.609,6.452-5.925-5.927a.814.814,0,0,0-1.124,0Z" transform="translate(2360.26 -2130.864)" fill="#404d61" stroke="#404d61" stroke-width="1"/>
        <path id="Path_26626" data-name="Path 26626" d="M-1343.771,3361.484v-16.667a.793.793,0,0,0-.543-.754l-28.571-9.523a.774.774,0,0,0-.5,0l-28.571,9.523a.8.8,0,0,0-.543.754.8.8,0,0,0,.543.756l28.571,9.522a.826.826,0,0,0,.51,0l27.519-9.174v15.564Zm-29.365-7.979-26.061-8.687,26.061-8.687,26.062,8.687Z" transform="translate(2364.958 -2138.499)" fill="#404d61" stroke="#404d61" stroke-width="1"/>
        <rect id="Rectangle_5634" data-name="Rectangle 5634" width="1.587" height="1.587" transform="translate(1019.6 1227.747)" fill="#404d61" stroke="#404d61" stroke-width="1"/>
        <rect id="Rectangle_5635" data-name="Rectangle 5635" width="1.587" height="1.587" transform="translate(991.029 1269.016)" fill="#404d61" stroke="#404d61" stroke-width="1"/>
      </g>
    </g>
  </g>
</svg>
