<svg xmlns="http://www.w3.org/2000/svg" xmlns:xlink="http://www.w3.org/1999/xlink" width="50" height="36" viewBox="0 0 50 36">
  <defs>
    <clipPath id="clip-icon-blockquote">
      <rect width="50" height="36"/>
    </clipPath>
  </defs>
  <g id="icon-blockquote" clip-path="url(#clip-icon-blockquote)">
    <g id="Group_175" data-name="Group 175" transform="translate(-1301.34 -969.04)">
      <path id="Path_322" data-name="Path 322" d="M1319.026,1004.545a15.98,15.98,0,0,0,1.729-3.724,16.709,16.709,0,0,0,.665-4.388,12.1,12.1,0,0,0-.665-3.456,14.022,14.022,0,0,0-1.729-3.458h-7.979a13.4,13.4,0,0,1,.532-5.053,16.16,16.16,0,0,1,2.393-4.787,18.907,18.907,0,0,1,3.989-3.99,19.16,19.16,0,0,1,5.186-2.659l-2.393-3.989a22.8,22.8,0,0,0-9.308,4.255,23.836,23.836,0,0,0-7.181,8.51c-1.992,3.458-2.926,7.846-2.926,13.032a28.024,28.024,0,0,0,2.393,9.708Z" transform="translate(0 0)" fill="#f3a200"/>
      <path id="Path_323" data-name="Path 323" d="M1362.892,1004.545a15.978,15.978,0,0,0,1.729-3.724,16.709,16.709,0,0,0,.665-4.388,12.112,12.112,0,0,0-.665-3.456,14.024,14.024,0,0,0-1.729-3.458h-7.979a13.4,13.4,0,0,1,.533-5.054,16.153,16.153,0,0,1,2.393-4.787,18.891,18.891,0,0,1,3.988-3.989,19.164,19.164,0,0,1,5.186-2.66l-2.393-3.989a22.807,22.807,0,0,0-9.308,4.255,23.838,23.838,0,0,0-7.181,8.51c-1.992,3.458-2.925,7.846-2.925,13.032a30.491,30.491,0,0,0,2.393,9.708Z" transform="translate(-15.674 0)" fill="#f3a200"/>
    </g>
  </g>
</svg>
