<svg xmlns="http://www.w3.org/2000/svg" xmlns:xlink="http://www.w3.org/1999/xlink" width="200" height="105" viewBox="0 0 200 105">
  <defs>
    <clipPath id="clip-icon-bonus">
      <rect width="200" height="105"/>
    </clipPath>
  </defs>
  <g id="icon-bonus" clip-path="url(#clip-icon-bonus)">
    <g id="Group_17388" data-name="Group 17388" transform="translate(1768.5 -3327.875)">
      <path id="Path_26594" data-name="Path 26594" d="M-1689.7,3352.033v-4.381h7.87l7.078-17.152,3.478.361,3.207,1.781.145,3.016-8.055,12.719v4.175l-5.034-.58Z" transform="translate(10.536 0.141)" fill="#ffe4a4"/>
      <circle id="Ellipse_194" data-name="Ellipse 194" cx="20.827" cy="20.827" r="20.827" transform="translate(-1695.458 3368.007)" fill="#ffe4a4" stroke="#404d61" stroke-width="2"/>
      <g id="Group_17385" data-name="Group 17385" transform="translate(-1680.855 3376.243)">
        <path id="Path_26603" data-name="Path 26603" d="M-1690.5,3374.594a4.881,4.881,0,0,0,2.706,5.606,13.925,13.925,0,0,0,1.847.7c2.587.848,4.414,1.608,4.361,3.663a2.674,2.674,0,0,1-2.438,2.478,3.954,3.954,0,0,1-4.442-2.412l-2.617.989a6.46,6.46,0,0,0,4.8,4.11v3.18h2.8v-3.122a5.342,5.342,0,0,0,4.693-5.152c.109-4.3-3.9-5.608-6.287-6.394a12.574,12.574,0,0,1-1.464-.536,2.086,2.086,0,0,1-1.239-2.463,2.763,2.763,0,0,1,2.725-2.095,4.623,4.623,0,0,1,3.819,2.46l2.5-1.254a7.761,7.761,0,0,0-4.747-3.816v-2.81h-2.8v2.758A5.515,5.515,0,0,0-1690.5,3374.594Z" transform="translate(1691.08 -3367.723)" fill="#404d61" stroke="#ffe4a4" stroke-width="0.5"/>
      </g>
      <path id="Path_26604" data-name="Path 26604" d="M-1640.292,3390.45l-4.342-2.412-5.916-.039v25.728h4.9l4.22-1.289,1.905-2.386Z" transform="translate(18.798 13.085)" fill="#ffe4a4"/>
      <g id="Group_17386" data-name="Group 17386" transform="translate(-1642.166 3400.472)">
        <ellipse id="Ellipse_195" data-name="Ellipse 195" cx="10.414" cy="3.675" rx="10.414" ry="3.675" fill="none" stroke="#404d61" stroke-miterlimit="10" stroke-width="2"/>
        <path id="Path_26605" data-name="Path 26605" d="M-1638.673,3394.5c0,2.03-4.663,3.675-10.413,3.675s-10.414-1.645-10.414-3.675" transform="translate(1659.5 -3385.925)" fill="none" stroke="#404d61" stroke-miterlimit="10" stroke-width="2"/>
        <path id="Path_26606" data-name="Path 26606" d="M-1638.673,3398.5c0,2.03-4.663,3.675-10.413,3.675s-10.414-1.645-10.414-3.675" transform="translate(1659.5 -3385.024)" fill="none" stroke="#404d61" stroke-miterlimit="10" stroke-width="2"/>
        <path id="Path_26607" data-name="Path 26607" d="M-1638.673,3402.5c0,2.03-4.663,3.675-10.413,3.675s-10.414-1.646-10.414-3.675" transform="translate(1659.5 -3384.123)" fill="none" stroke="#404d61" stroke-miterlimit="10" stroke-width="2"/>
        <path id="Path_26608" data-name="Path 26608" d="M-1659.5,3390.5v19.6c0,2.03,4.663,3.676,10.414,3.676s10.413-1.646,10.413-3.676v-19.6" transform="translate(1659.5 -3386.824)" fill="none" stroke="#404d61" stroke-miterlimit="10" stroke-width="2"/>
      </g>
      <g id="Group_17389" data-name="Group 17389">
        <path id="Path_26595" data-name="Path 26595" d="M-1667.861,3331.292c-7.357-1.908-21.845-1.889-29.055.059a3.257,3.257,0,0,0-1.961,4.787l6.8,11.654h18.377l7.7-11.549A3.248,3.248,0,0,0-1667.861,3331.292Z" transform="translate(8.369 0)" fill="none" stroke="#404d61" stroke-linecap="round" stroke-linejoin="round" stroke-miterlimit="10" stroke-width="2"/>
        <path id="Path_26596" data-name="Path 26596" d="M-1687.082,3348.669h6.765a28.71,28.71,0,0,1,5.193.478V3344.5H-1693.5v4.9A28.6,28.6,0,0,1-1687.082,3348.669Z" transform="translate(9.68 3.292)" fill="none" stroke="#404d61" stroke-linecap="round" stroke-linejoin="round" stroke-miterlimit="10" stroke-width="2"/>
        <line id="Line_639" data-name="Line 639" x2="3.675" y2="8.576" transform="translate(-1681.37 3339.216)" fill="none" stroke="#404d61" stroke-linecap="round" stroke-miterlimit="10" stroke-width="1.5"/>
        <line id="Line_640" data-name="Line 640" y1="8.576" x2="3.675" transform="translate(-1671.569 3339.216)" fill="none" stroke="#404d61" stroke-linecap="round" stroke-miterlimit="10" stroke-width="1.5"/>
        <path id="Path_26597" data-name="Path 26597" d="M-1705.259,3395.866-1736.5,3378.1l13.476-19.6,17.938,11.877" transform="translate(0 6.444)" fill="none" stroke="#404d61" stroke-linecap="round" stroke-linejoin="round" stroke-miterlimit="10" stroke-width="2"/>
        <path id="Path_26598" data-name="Path 26598" d="M-1706.835,3389.017l-20.214-11.266-2.45-4.9,4.9-7.351h4.9l12.864,8.576" transform="translate(1.576 8.02)" fill="none" stroke="#404d61" stroke-linecap="round" stroke-linejoin="round" stroke-miterlimit="10" stroke-width="1.5"/>
        <path id="Path_26599" data-name="Path 26599" d="M-1726.909,3366.873l-7.591-8.671,17.152-14.7,16.189,18.108" transform="translate(0.45 3.067)" fill="none" stroke="#404d61" stroke-linecap="round" stroke-linejoin="round" stroke-miterlimit="10" stroke-width="2"/>
        <path id="Path_26600" data-name="Path 26600" d="M-1701.8,3356.7l-8.8-11.2-4.9,3.676" transform="translate(4.728 3.517)" fill="none" stroke="#404d61" stroke-linecap="round" stroke-linejoin="round" stroke-miterlimit="10" stroke-width="2"/>
        <path id="Path_26601" data-name="Path 26601" d="M-1704.858,3363.9l-12.842-13.4h-3.675l-6.125,6.125v3.675l1.225,1.225" transform="translate(2.026 4.643)" fill="none" stroke="#404d61" stroke-linecap="round" stroke-linejoin="round" stroke-miterlimit="10" stroke-width="1.5"/>
        <rect id="Rectangle_5627" data-name="Rectangle 5627" width="4.546" height="8" rx="2" transform="translate(-1715.073 3379.393) rotate(32.604)" stroke-width="1.5" stroke="#404d61" stroke-linecap="round" stroke-linejoin="round" stroke-miterlimit="10" fill="none"/>
        <path id="Path_26602" data-name="Path 26602" d="M-1722.5,3361.228l3.813-3.365a2.272,2.272,0,0,1,3.211.137h0a2.272,2.272,0,0,1-.138,3.211l-2.855,2.62" transform="translate(3.152 6.166)" fill="none" stroke="#404d61" stroke-linecap="round" stroke-linejoin="round" stroke-miterlimit="10" stroke-width="1.5"/>
        <path id="Rectangle_5628" data-name="Rectangle 5628" d="M28,0h6.481a28,28,0,0,1,28,28V66.066a9.891,9.891,0,0,1-9.891,9.891H9.891A9.891,9.891,0,0,1,0,66.066V28A28,28,0,0,1,28,0Z" transform="translate(-1705.259 3352.08)" fill="none" stroke="#404d61" stroke-linecap="round" stroke-linejoin="round" stroke-miterlimit="10" stroke-width="2"/>
      </g>
      <path id="Path_26617" data-name="Path 26617" d="M-1647.034,3423.157v-34.92l-4.479.68-4.082,1.134-.964,3.968v32.539l3.062,2.665,6.462.793Z" fill="#fff"/>
      <path id="Path_26609" data-name="Path 26609" d="M-1651.464,3380.408l-3.72-2.114-3.853-.678-3.224-.116v41.654h4.9l4.73-1.838,1.4-1.838Z" transform="translate(15.196 10.721)" fill="#ffe4a4"/>
      <g id="Group_17387" data-name="Group 17387" transform="translate(-1656.867 3388.221)">
        <ellipse id="Ellipse_196" data-name="Ellipse 196" cx="10.414" cy="3.675" rx="10.414" ry="3.675" fill="none" stroke="#404d61" stroke-miterlimit="10" stroke-width="2"/>
        <path id="Path_26610" data-name="Path 26610" d="M-1650.673,3384.5c0,2.03-4.663,3.676-10.414,3.676s-10.414-1.645-10.414-3.676" transform="translate(1671.5 -3375.924)" fill="none" stroke="#404d61" stroke-miterlimit="10" stroke-width="2"/>
        <path id="Path_26611" data-name="Path 26611" d="M-1650.673,3388.5c0,2.03-4.663,3.676-10.414,3.676s-10.414-1.645-10.414-3.676" transform="translate(1671.5 -3375.023)" fill="none" stroke="#404d61" stroke-miterlimit="10" stroke-width="2"/>
        <path id="Path_26612" data-name="Path 26612" d="M-1650.673,3392.5c0,2.03-4.663,3.675-10.414,3.675s-10.414-1.645-10.414-3.675" transform="translate(1671.5 -3374.124)" fill="none" stroke="#404d61" stroke-miterlimit="10" stroke-width="2"/>
        <path id="Path_26613" data-name="Path 26613" d="M-1650.673,3396.5c0,2.03-4.663,3.675-10.414,3.675s-10.414-1.645-10.414-3.675" transform="translate(1671.5 -3373.223)" fill="none" stroke="#404d61" stroke-miterlimit="10" stroke-width="2"/>
        <path id="Path_26614" data-name="Path 26614" d="M-1650.673,3400.5c0,2.03-4.663,3.675-10.414,3.675s-10.414-1.645-10.414-3.675" transform="translate(1671.5 -3372.322)" fill="none" stroke="#404d61" stroke-miterlimit="10" stroke-width="2"/>
        <path id="Path_26615" data-name="Path 26615" d="M-1650.673,3404.5c0,2.03-4.663,3.676-10.414,3.676s-10.414-1.646-10.414-3.676" transform="translate(1671.5 -3371.421)" fill="none" stroke="#404d61" stroke-miterlimit="10" stroke-width="2"/>
        <path id="Path_26616" data-name="Path 26616" d="M-1650.673,3380.5v34.3c0,2.03-4.663,3.676-10.414,3.676s-10.414-1.645-10.414-3.676v-34.3" transform="translate(1671.5 -3376.825)" fill="none" stroke="#404d61" stroke-miterlimit="10" stroke-width="2"/>
      </g>
      <path id="Path_29463" data-name="Path 29463" d="M-4250.391-3106.951c0-9.006,8.475-19.013,17.687-20.782" transform="translate(2549.951 6485.142)" fill="none" stroke="#404d61" stroke-linecap="round" stroke-width="1.5"/>
    </g>
  </g>
</svg>
