<svg xmlns="http://www.w3.org/2000/svg" xmlns:xlink="http://www.w3.org/1999/xlink" width="92" height="82" viewBox="0 0 92 82">
  <defs>
    <clipPath id="clip-icon-heart">
      <rect width="92" height="82"/>
    </clipPath>
  </defs>
  <g id="icon-heart" clip-path="url(#clip-icon-heart)">
    <path id="Path_30300" data-name="Path 30300" d="M3597.781,600.873a26.228,26.228,0,0,0-4.775-.461,18.659,18.659,0,0,1-29.2,0,26.229,26.229,0,0,0-4.775.461c-10.1,1.885-16.413,9.64-16.468,20.24-.052,10.235,6.067,20.122,17.7,28.592a83.676,83.676,0,0,0,17.428,9.672,2,2,0,0,0,1.43,0,83.723,83.723,0,0,0,17.429-9.672c11.631-8.47,17.751-18.357,17.7-28.593C3614.193,610.513,3607.883,602.758,3597.781,600.873Zm-19.374,54.477c-4.793-2.014-31.943-14.307-31.841-34.217.045-8.69,4.98-14.794,13.2-16.327a22.129,22.129,0,0,1,4.042-.394c8.655,0,11.948,6.021,12.6,7.422v4.11a7.883,7.883,0,0,0-6.034,5.878,6.978,6.978,0,0,0,3.868,8.016,20.1,20.1,0,0,0,2.641.995c3.7,1.213,6.31,2.3,6.235,5.237-.069,2.752-2.685,3.408-3.485,3.544a5.653,5.653,0,0,1-6.351-3.449l-3.741,1.414a9.233,9.233,0,0,0,6.867,5.875v4.685h4v-4.6c3.983-.719,6.614-3.6,6.709-7.364.156-6.141-5.568-8.018-8.988-9.14a18.017,18.017,0,0,1-2.092-.768,2.983,2.983,0,0,1-1.771-3.52,3.95,3.95,0,0,1,3.9-2.995c3.609,0,5.385,3.374,5.459,3.517l3.575-1.793a11.1,11.1,0,0,0-6.787-5.457v-4.181c.659-1.42,3.955-7.423,12.6-7.423a22.141,22.141,0,0,1,4.042.394c8.221,1.533,13.156,7.637,13.2,16.327C3610.352,641.043,3583.2,653.336,3578.407,655.35Z" transform="translate(-3532.566 -589.412)" fill="#333"/>
  </g>
</svg>
